<svg class="b-braun-logo" version="1.1" xmlns="http://www.w3.org/2000/svg" xmlns:xlink="http://www.w3.org/1999/xlink" x="0px" y="0px" viewBox="0 0 270.7 82.8" style="enable-background:new 0 0 270.7 82.8;" xml:space="preserve"> <style type="text/css">
        .b-braun-st0{fill:#00A88E;}
        .b-braun-st1{fill:none;stroke:#00A88E;stroke-width:0.6877;}
    </style> <path class="b-braun-st0" d="M65.6,64.4c1.5,0.8,3.2,1.8,3.2,4.1c0,3.1-2.5,4.2-5.3,4.2c-1.6,0-3.1-0.4-3.4-0.4v-1.8 c0.3,0.1,1.8,0.8,3.6,0.8c1.9,0,3.2-0.9,3.2-2.6c0-1.7-1.2-2.4-2.5-3.1l-1.3-0.7c-1.4-0.8-3.2-1.6-3.2-3.9c0-2.6,2.1-3.9,4.8-3.9 c1.5,0,2.6,0.3,3.1,0.4v1.7c-0.4-0.1-1.7-0.6-3.3-0.6c-1.7,0-2.8,0.9-2.8,2.3c0,1.3,1.3,2,2.5,2.7L65.6,64.4"></path> <polyline class="b-braun-st0" points="73.3,57.5 75,57.5 75,64.1 81.2,64.1 81.2,57.5 82.9,57.5 82.9,72.5 81.2,72.5 81.2,65.4 75,65.4  75,72.5 73.3,72.5 73.3,57.5 "></polyline> <path class="b-braun-st0" d="M86.9,72.5h1.7l1.5-4.6h5.4l1.5,4.6h1.7l-4.8-15h-2.1L86.9,72.5 M92.7,59.1L92.7,59.1l2.2,7.4h-4.4L92.7,59.1z"></path> <path class="b-braun-st0" d="M102.6,72.5h1.7v-6.7h1.6c2.3,0,2.8,1,3.2,3.2l0.7,3.5h1.7l-0.9-4.1c-0.3-1.7-0.5-2.8-2.6-3.3v-0.1
    c1.4-0.3,3.1-1.1,3.1-3.8c0-3.6-3.8-3.8-4.8-3.8h-3.7V72.5 M104.3,58.9h1.2c1.8,0,3.9,0,3.9,2.6c0,2.5-2.1,2.9-4.2,2.9h-0.9V58.9z"></path> <rect x="116.4" y="57.5" class="b-braun-st0" width="1.7" height="15"></rect> <polyline class="b-braun-st0" points="123.9,57.5 126.1,57.5 132.2,70.2 132.3,70.2 132.3,57.5 133.9,57.5 133.9,72.5 131.7,72.5
    125.5,59.9 125.5,59.9 125.5,72.5 123.9,72.5 123.9,57.5 "></polyline> <path class="b-braun-st0" d="M149.1,71.3c-0.4,0.3-2,1.4-4.3,1.4c-4.7,0-6-3.9-6-8.2c0-3.8,1.5-7.3,5.6-7.3c3,0,4.8,1.8,4.8,4.3h-1.9
    c0-1.3-0.7-2.9-2.9-2.9c-3.1,0-3.8,3.1-3.8,5.8c0,2.9,0.5,6.8,4,6.8c1.5,0,2.5-0.6,2.8-0.9v-5H144v-1.4h5.1V71.3"></path> <polyline class="b-braun-st0" points="162,57.5 169.3,57.5 169.3,58.9 163.7,58.9 163.7,64 169,64 169,65.4 163.7,65.4 163.7,71.1
    169.5,71.1 169.5,72.5 162,72.5 162,57.5 "></polyline> <polyline class="b-braun-st0" points="176.9,64.7 172.7,57.5 174.5,57.5 177.9,63.1 181.2,57.5 183,57.5 178.8,64.7 183.5,72.5 181.7,72.5
    177.9,66.2 174.1,72.5 172.2,72.5 176.9,64.7 "></polyline> <path class="b-braun-st0" d="M187.3,72.5h1.7v-6.7h1.8c2.8,0,4.8-1.1,4.8-4.1c0-4.1-3.6-4.1-4.8-4.1h-3.5V72.5 M189,58.9h1.4 c1.2,0,3.4,0,3.4,2.8c0,1.7-0.9,2.7-3,2.7H189V58.9z"></path> <polyline class="b-braun-st0" points="199.7,57.5 207,57.5 207,58.9 201.4,58.9 201.4,64 206.8,64 206.8,65.4 201.4,65.4 201.4,71.1
    207.2,71.1 207.2,72.5 199.7,72.5 199.7,57.5 "></polyline> <path class="b-braun-st0" d="M211.8,72.5h1.7v-6.7h1.6c2.3,0,2.8,1,3.2,3.2l0.7,3.5h1.7l-0.9-4.1c-0.3-1.7-0.5-2.8-2.6-3.3v-0.1 c1.4-0.3,3.1-1.1,3.1-3.8c0-3.6-3.8-3.8-4.8-3.8h-3.7V72.5 M213.5,58.9h1.3c1.8,0,3.9,0,3.9,2.6c0,2.5-2.1,2.9-4.2,2.9h-0.9V58.9z"></path> <polyline class="b-braun-st0" points="227.2,58.9 223.6,58.9 223.6,57.5 232.5,57.5 232.5,58.9 228.9,58.9 228.9,72.5 227.2,72.5
    227.2,58.9 "></polyline> <rect x="236.4" y="57.5" class="b-braun-st0" width="1.7" height="15"></rect> <path class="b-braun-st0" d="M248.6,64.4c1.5,0.8,3.2,1.8,3.2,4.1c0,3.1-2.5,4.2-5.3,4.2c-1.6,0-3.1-0.4-3.4-0.4v-1.8 c0.3,0.1,1.8,0.8,3.6,0.8c1.9,0,3.2-0.9,3.2-2.6c0-1.7-1.3-2.4-2.5-3.1l-1.3-0.7c-1.4-0.8-3.2-1.6-3.2-3.9c0-2.6,2.1-3.9,4.8-3.9 c1.5,0,2.6,0.3,3.1,0.4v1.7c-0.4-0.1-1.7-0.6-3.3-0.6c-1.7,0-2.8,0.9-2.8,2.3c0,1.3,1.4,2,2.5,2.7L248.6,64.4"></path> <polyline class="b-braun-st0" points="256.3,57.5 263.6,57.5 263.6,58.9 258,58.9 258,64 263.3,64 263.3,65.4 258,65.4 258,71.1 263.7,71.1
    263.7,72.5 256.3,72.5 256.3,57.5"></polyline> <path class="b-braun-st0" d="M69.6,19.8v19.7h5.7c0,0,4.7,0,4.7-4.2c0,0-0.5-3.8-9.2-7.5h3.6c0,0,4,0.2,4-4.1c0-4.4-4.3-3.9-4.3-3.9H69.6 M79,14.5c7.7,0,8,6.6,8,6.6c0,6.9-5.9,6.8-5.9,6.8c8.5,0,8.3,8,8.3,8c0,9.4-11.3,8.9-11.3,8.9s-22,0-20.4,0c1.7,0,2.2-2.7,2.2-2.7 s0-23,0-24.7c0-2.2-2.2-2.9-2.2-2.9S71.4,14.5,79,14.5z"></path> <path class="b-braun-st0" d="M20.6,19.8v19.7h5.7c0,0,4.7,0,4.7-4.2c0,0-0.5-3.8-9.2-7.5h3.6c0,0,4,0.2,4-4.1c0-4.4-4.3-3.9-4.3-3.9H20.6 M30,14.5c7.6,0,8,6.6,8,6.6c0,6.9-5.9,6.8-5.9,6.8c8.5,0,8.3,8,8.3,8c0,9.4-11.2,8.9-11.2,8.9s-22,0-20.4,0c1.7,0,2.2-2.7,2.2-2.7 s0-23,0-24.7c0-2.2-2.2-2.9-2.2-2.9S22.3,14.5,30,14.5z"></path> <path class="b-braun-st0" d="M91.2,14.5c0,0,2.7,0.5,2.7,2.8c0,2.4,0,24.8,0,24.8s-0.5,2.7-2.7,2.7c-2.6,0,12.4,0,12.4,0v-25h5 c0,0,4.4,0.1,4.4,4.8c0,4.6-4,4.8-4,4.8h-4.4c0,0,1.9,1.6,4.4,7c2.4,5.4,2.4,5.4,2.5,5.5c0.1,0.1,1.6,3,3.6,3c2,0,9.6,0,9.6,0 s-2.1-0.6-3.4-3.5c-1.2-2.9-2.7-6.3-2.7-6.3s-1.3-4.1-4.7-4.1c-3.4,0-0.2,0-0.2,0s8.5,0.4,8.5-8.6s-12.5-7.8-12.5-7.8H91.2"></path> <path class="b-braun-st0" d="M151.5,44.8h12c0,0-1.7-0.4-3-3.9c-1.3-3.5-8.4-23.2-8.4-23.2s-0.7-3.2-3.4-3.2c-2.7,0-13.8,0-13.8,0 s3.1,0.7,2.3,2.9c-0.5,1.3-2.9,7.8-4.9,13.3h-3.1c-2,0-2.4,1.5-3.2,3.3c-0.8,1.9-2.6,3.5-2.6,3.5c1.4-0.9,4.7-0.6,4.7-0.6 s0.7,0,1.8,0.1c-0.4,0.9-0.6,1.6-0.6,1.6s-2.4,5.3-3.4,6.2h9.2l2.9-7.8c0.8,0,1.4,0,1.8-0.1c2.1-0.1,2.8-1.3,3.3-2.8 c0.5-1.4,2.5-3.7,2.5-3.7c-1.6,0.5-4.8,0.3-4.8,0.3h-0.5l3-8.2L151.5,44.8"></path> <path class="b-braun-st0" d="M159.8,14.5c0,0,3.2,0.3,3.2,2.8c0,2.6,0,16.4,0,16.4s-0.6,11.5,14.4,11.5c15,0,14.5-10.9,14.5-10.9V17.7 c0,0-0.7-3.1-3.2-3.1c-2.4,0-7.1,0-7.1,0s2.8,0.7,2.8,3.1c0,2.4,0,16.5,0,16.5s0.3,5.1-5.8,5.1c0,0-5.3,0.1-5.3-5.5 c0-5.6,0-16.2,0-16.2s-0.2-3.1-3.1-3.1C167.5,14.5,159.8,14.5,159.8,14.5"></path> <path class="b-braun-st0" d="M195.3,14.5c0,0,2.8,1.1,2.8,3.3c0,2.1,0,24,0,24s-0.4,3.1-2.8,3.1s10.1,0,10.1,0V29l12.2,13.5 c0,0,1.2,2.3,5.1,2.3c4,0,4.6,0,4.6,0V18c0,0-0.2-3.5-3.5-3.5c-3.3,0-6.7,0-6.7,0s2.6,0.8,2.6,3.1c0,2.3,0,12.8,0,12.8l-14-15.9 H195.3"></path> <line class="b-braun-st1" x1="48.5" y1="10" x2="48.5" y2="48.6"></line> </svg>