<svg class="bayer-logo" version="1.1" xmlns="http://www.w3.org/2000/svg" xmlns:xlink="http://www.w3.org/1999/xlink" x="0px" y="0px" viewBox="0 0 344 157" style="enable-background:new 0 0 344 157;" xml:space="preserve"> <style type="text/css">
        .bayer-st0{fill:#FFFFFF;}
        .bayer-st1{fill-rule:evenodd;clip-rule:evenodd;fill:#808285;}
        .bayer-st2{fill:#808285;}
        .bayer-st3{fill:url(#bayer-SVGID_1_);}
        .bayer-st4{fill:url(#bayer-SVGID_2_);}
        .bayer-st5{fill:url(#bayer-SVGID_3_);}
        .bayer-st6{fill:#B1B3B6;stroke:#000000;stroke-width:0.25;stroke-miterlimit:10;}
        .bayer-st7{fill-rule:evenodd;clip-rule:evenodd;fill:#B1B3B6;stroke:#000000;stroke-width:0.25;stroke-miterlimit:10;}
    </style> <polygon class="bayer-st0" points="67.6,26.6 79.8,26.6 79.8,27 68,27 67.6,26.6 "></polygon> <path class="bayer-st1" d="M185.2,101.6c10.5,0,17.2-3.8,17.2-13.4c0-8.1-5.8-11.7-12.5-12.6v-0.1c6.5-1.3,10.3-5.3,10.3-10.6 c0-3.8-1.5-6.6-4.3-8.5c-2.7-1.8-6.8-2.6-12.2-2.5h-19.9v2c6.1,0.4,6.2,0.6,6.2,4.4v34.9c0,3.9-0.1,4-6.2,4.4v2H185.2L185.2,101.6z M176.8,77.1h5c8.5,0,13.2,4.3,13.2,11.6c0,8.3-5.7,10.5-11.6,10.5c-5.5,0-6.6-1-6.6-5.3V77.1L176.8,77.1z M176.8,59.8 c0-3,0.2-3.4,5.6-3.4c5-0.1,10.5,1.9,10.5,9c0,6.8-4.3,9.4-11.5,9.4h-4.6V59.8L176.8,59.8z"></path> <path class="bayer-st2" d="M238.5,67.9v2c3.3,0.1,4,0.5,5.2,3.6c3.4,8.2,9.1,22.9,10.8,27.6c0.4,1.2,0.6,2.2,0.6,3.4 c0,1.6-0.6,3.6-1.7,5.8c-1,2.3-2.3,2.9-3,2.9c-0.7,0-1.3-0.2-2.5-1.4c-0.7-0.6-1.2-1-2.1-1c-1.3,0-3,1.9-3,3.8 c0,1.7,1.9,3.6,4.8,3.6c2.7,0,6.2-0.8,9.8-11c4.3-12.2,10.6-29,12.7-33.8c1.2-2.7,1.7-3.3,5.1-3.5v-2H262v2l3.6,0.3 c1.2,0.1,1.3,1,1,2.3c-1,4.1-4.6,14.5-7.6,22.7h-0.1c-3.2-8.3-5.9-15.8-8.4-23c-0.4-1.2-0.5-2,1-2.1l3-0.3v-2H238.5L238.5,67.9z"></path> <path class="bayer-st2" d="M319.7,67l0.8,5.5c4.5-4,6.6-5.5,9.1-5.5c2.7,0,3.7,1.9,3.7,3.4c0,2.1-1.5,3.9-3.2,3.9c-0.3,0-0.9-0.1-1.4-0.3 c-2-1.1-3.2-1.5-4.3-1.5c-1.6,0-3.9,1.8-3.9,7.1l0,22.1H314l0-27.7c0-2.5-0.4-2.8-2.2-3.1l-2.6-0.3v-1.7L319.7,67L319.7,67z"></path> <path class="bayer-st1" d="M302.1,83.5h-19.9c-0.1,7.2,1.6,15.4,10.1,15.4c4.5,0,7.1-2.3,8.9-5.3l2.3,1.2c-2.1,4.4-6,7.5-12.6,7.6 c-11.2,0.1-15.9-6.6-15.9-17.4c0-10.3,5.1-18,15.9-18c12.6,0,13.9,9.8,13.9,13.9C304.9,83.2,303.6,83.5,302.1,83.5L302.1,83.5z M282.3,80.9c0-2.8,1-11.4,8.2-11.4c6.4,0,7.2,6.6,7.2,9.2c0,1.3-0.4,2.2-2.3,2.2H282.3L282.3,80.9z"></path> <path class="bayer-st1" d="M234.4,95.6c0,2.5,0.4,2.8,2.2,3.1l2.6,0.3v1.7l-10.5,1.7l-0.6-4.1c-2.2,1.5-6,4-10.3,4.1 c-6.5,0-9.9-4.6-9.9-9.8c0-3.2,1.5-6.7,6.4-8.2c5.5-1.7,12.1-3.5,13.9-5.2v-2.9c0-5.5-3.2-6.9-5.9-6.9c-2.8,0-5.6,1.7-7.1,6.8 c-0.3,1.2-0.8,1.9-2.2,1.9c-1.3,0-3.9-1-3.9-3.2c0-3.8,6.1-7.9,13.9-7.9c10.4,0,11.3,5.2,11.3,9.2L234.4,95.6L234.4,95.6z M228.1,91.8c0,5.6-4.3,7-7,7c-4.3,0-6.4-3-6.4-7.1c0-3.2,1.5-4.9,5.4-6.3c2.8-1,6.4-2.3,7.9-3.3V91.8L228.1,91.8z"></path> <linearGradient id="bayer-SVGID_1_" gradientUnits="userSpaceOnUse" x1="30.9513" y1="33.0333" x2="120.3678" y2="122.4498"> <stop offset="0" style="stop-color:#68BD49"></stop> <stop offset="0.5004" style="stop-color:#FFFFFF"></stop> <stop offset="1" style="stop-color:#0097D2"></stop> </linearGradient> <path class="bayer-st3" d="M75.7,19.5c32.1,0,58.2,26.1,58.2,58.2S107.8,136,75.7,136s-58.2-26.1-58.2-58.2S43.6,19.5,75.7,19.5 M75.7,14.5c-34.9,0-63.2,28.3-63.2,63.2S40.7,141,75.7,141s63.2-28.3,63.2-63.2S110.6,14.5,75.7,14.5L75.7,14.5z"></path> <linearGradient id="bayer-SVGID_2_" gradientUnits="userSpaceOnUse" x1="12.4325" y1="77.7416" x2="138.8866" y2="77.7416" gradientTransform="matrix(0.9571 0.2896 -0.2896 0.9571 25.7575 -18.5803)"> <stop offset="0" style="stop-color:#68BD49"></stop> <stop offset="0.5004" style="stop-color:#FFFFFF"></stop> <stop offset="1" style="stop-color:#0097D2"></stop> </linearGradient> <path class="bayer-st4" d="M93.8,17.7c33.1,10,51.9,45.1,41.9,78.2s-45.1,51.9-78.2,41.9c-33.1-10-51.9-45.1-41.9-78.2S60.7,7.7,93.8,17.7 M94,17.2C60.5,7.1,25.3,26,15.1,59.4s8.8,68.7,42.2,78.8s68.7-8.8,78.8-42.2C146.3,62.6,127.4,27.3,94,17.2L94,17.2z"></path> <linearGradient id="bayer-SVGID_3_" gradientUnits="userSpaceOnUse" x1="17.2032" y1="77.7416" x2="134.1159" y2="77.7416"> <stop offset="0" style="stop-color:#68BD49"></stop> <stop offset="0.5004" style="stop-color:#FFFFFF"></stop> <stop offset="1" style="stop-color:#0097D2"></stop> </linearGradient> <path class="bayer-st5" d="M75.7,19.8c32,0,58,26,58,58s-26,58-58,58s-58-26-58-58S43.7,19.8,75.7,19.8 M75.7,19.3 c-32.3,0-58.5,26.2-58.5,58.5s26.2,58.5,58.5,58.5s58.5-26.2,58.5-58.5S107.9,19.3,75.7,19.3L75.7,19.3z"></path> <polygon class="bayer-st6" points="81.8,69.5 75.6,77.8 69.5,69.5 65.1,69.5 73.8,80.7 73.8,86.7 77.4,86.7 77.4,80.7 86.1,69.5 81.8,69.5 "></polygon> <polygon class="bayer-st6" points="105,72.7 105,69.5 89.5,69.5 89.5,86.7 105,86.7 105,83.4 93.2,83.4 93.2,79.5 104.6,79.5 104.6,76.3 93.2,76.3 93.2,72.7 105,72.7 "></polygon> <path class="bayer-st7" d="M115.1,76.7h6.4c1.2,0,2-0.8,2-2c0-1.2-0.8-2-2-2h-6.4V76.7L115.1,76.7z M123,79.8c2.4-0.4,4.2-2.6,4.2-5.1 c0-2.8-2.4-5.2-5.2-5.2l-10.5,0v17.1h3.6v-6.8l3.6,0l5.1,6.8l4.3,0L123,79.8L123,79.8z"></path> <path class="bayer-st7" d="M79,116.2h-7.5v4H79c1.2,0,2-0.8,2-2C81,117,80.2,116.2,79,116.2L79,116.2z M76.8,123.4l-5.3,0v6.8h-3.6V113 h11.5c2.8,0,5.2,2.4,5.2,5.2c0,2.3-1.5,4.4-3.6,4.9l5.3,7l-4.3,0L76.8,123.4L76.8,123.4z"></path> <path class="bayer-st7" d="M28.5,83.5l7.9,0c1.2,0,2-0.8,2-2c0-1.2-0.8-2-2-2h-7.9V83.5L28.5,83.5z M28.5,76.3h7.7c1,0,1.8-0.7,1.8-1.8 c0-1-0.7-1.8-1.8-1.8l-7.7,0V76.3L28.5,76.3z M24.9,86.7V69.5h11.8c2.6,0,4.9,2.3,4.9,4.9c0,1.3-0.5,2.5-1.3,3.3 c1.1,0.9,1.8,2.3,1.8,3.8c0,2.7-2.3,5.1-5.1,5.1H24.9L24.9,86.7z"></path> <polygon class="bayer-st6" points="83.4,94.2 83.4,91 67.9,91 67.9,108.2 83.4,108.2 83.4,105 71.5,105 71.5,101 82.9,101 82.9,97.8 71.5,97.8 71.5,94.2 83.4,94.2 "></polygon> <path class="bayer-st7" d="M60.7,83.7H50.5l-1.4,3h-3.9l8.6-17.1h3.7L66,86.7h-3.9L60.7,83.7L60.7,83.7z M59.2,80.5l-3.6-7.4L52,80.5H59.2 L59.2,80.5z"></path> <path class="bayer-st7" d="M80.8,62.2H70.5l-1.4,3h-3.9L73.8,48h3.7l8.6,17.1h-3.9L80.8,62.2L80.8,62.2z M79.2,59l-3.6-7.4L72,59H79.2 L79.2,59z"></path> <path class="bayer-st7" d="M71.5,40.8l7.9,0c1.2,0,2-0.8,2-2c0-1.2-0.8-2-2-2h-7.9V40.8L71.5,40.8z M71.5,33.7h7.7c1,0,1.8-0.7,1.8-1.8 c0-1-0.7-1.8-1.8-1.8l-7.7,0V33.7L71.5,33.7z M67.9,44V26.9h11.8c2.6,0,4.9,2.3,4.9,4.9c0,1.3-0.5,2.5-1.3,3.3 C84.4,36,85,37.4,85,39c0,2.7-2.3,5.1-5.1,5.1H67.9L67.9,44z"></path> </svg>