<svg class="becton-dickinson-logo" version="1.1" xmlns="http://www.w3.org/2000/svg" xmlns:xlink="http://www.w3.org/1999/xlink" x="0px" y="0px" viewBox="0 0 640 264" style="enable-background:new 0 0 640 264;" xml:space="preserve"> <style type="text/css">
        .becton-dickinson-st0{fill:#223289;}
        .becton-dickinson-st1{fill:#F37121;}
        .becton-dickinson-st2{fill:#FFFFFF;}
    </style> <g> <path class="becton-dickinson-st0" d="M315.9,224.8c0-50.7,0-101.2,0-152.3c-6.4,0-12.2,0-18.3,0c0-9.7,0-18.7,0-28.2c1.8-0.1,3.4-0.2,5-0.2
        c24,0,48.1-0.1,72.1,0c12.3,0.1,24.4,1.5,35.7,7c14.8,7.2,23.7,18.7,24.9,35.4c1.4,17.8-5.9,31.4-21.1,40.8 c-0.6,0.4-1.3,0.7-1.9,1.2c-0.2,0.2-0.3,0.5,0.1-0.2c6.2,5.2,13.3,9.6,18.3,15.7c20.7,25.6,10.1,63.8-21,75.4 c-8.8,3.3-18.6,5.1-28,5.5c-20.6,0.8-41.3,0.3-61.9,0.2C318.7,225,317.6,224.9,315.9,224.8z M350.4,197.6c12.2,0,23.6,1.7,34.9-0.3 c12.8-2.2,19.4-13.4,19.6-25.4c0.2-13.5-6.3-23.5-19.3-25.9c-11.4-2.1-23-2.5-35.2-2.5C350.4,162,350.4,179.2,350.4,197.6z M350.4,117.2c9.3,0,18.1,0.2,26.9-0.1c2.7-0.1,5.5-1,8.1-2c9.9-3.7,14.5-11.1,14-22c-0.5-9.7-6-19.2-16-20.7 C372.6,70.7,362,72,350.4,72C350.4,87.7,350.4,102.2,350.4,117.2z"></path> <path class="becton-dickinson-st0" d="M479.5,225.1c0-51.1,0-101.6,0-152.5c-5.4,0-10.3-0.1-15.1,0c-2.9,0.1-3.9-0.9-3.8-3.8 c0.2-6.9,0.1-13.9,0-20.8c-0.1-2.7,0.7-4,3.7-3.9c24.5,0.3,49-0.1,73.4,0.9c19.4,0.8,37.8,6.2,54,17.5c26.9,18.7,36.3,45.7,35,77.2 c-1.8,44-28.9,74.7-73.1,82.5c-9.8,1.7-19.9,2.4-29.8,2.7C509.3,225.4,494.9,225.1,479.5,225.1z M514.1,197.3 c9.9-0.4,19.2-0.2,28.3-1.4c18-2.4,32.5-11.1,40.5-27.8c10.6-22.1,10.8-45-0.1-66.9c-13.3-26.8-40.6-30.9-68.7-28 C514.1,114.2,514.1,155.3,514.1,197.3z"></path> <path class="becton-dickinson-st0" d="M20.2,111c15.4,6.3,30.8,12.6,46.2,18.9c20.8,8.5,41.6,17.1,62.6,25.5c2,0.8,4.9,0.8,6.9,0 c34.4-13.9,68.7-28.1,103-42.1c1.9-0.8,3.8-1.5,5.7-2.3c7.9,29.4,0.3,80.7-42.4,113.4c-42.2,32.3-101.4,31.3-142.5-2.2 C20.5,190.2,12.2,141.4,20.2,111z M208.2,153.5c-6.3,2.6-11.6,5.1-17.1,7.1c-5.1,1.8-8.6,4.3-9.3,10.2c-0.3,2.7-1.9,5.3-3.2,7.7 c-7.7,14.4-19.5,23.4-36,27.3c9.3-11.1,9.9-20.4,2.4-27.9c-6.4-6.5-17.2-7-24.1-1.2c-4.4,3.8-6.4,8.6-6.3,14.4 c0.1,5.9,3.2,10.3,8.1,14.9c-18.8-4.7-32.2-14.7-38.2-31.9c-2.9-8.4-7.6-12.3-15.2-14.8c-4.1-1.3-8-3.3-12.7-5.3 c1.8,29.2,14,51.2,38.7,64.9c27.8,15.3,55.7,13.6,81.6-4.7C197.3,199.8,207.1,179.3,208.2,153.5z"></path> <path class="becton-dickinson-st1" d="M121.2,87.4C108.7,68.2,96.2,49,83.4,29.5c9.4-4.7,19-7.6,28.8-9.3c4.9-0.9,9.9-1.2,14.9-1.8
        c2.6-0.3,3.9,0.7,3.5,3.5c-2.2,17-4.4,34.1-6.6,51.1c-0.6,4.8-1.2,9.6-1.8,14.3C121.9,87.4,121.6,87.4,121.2,87.4z"></path> <path class="becton-dickinson-st1" d="M142.4,87.2c-1-8.1-2.1-16.2-3.1-24.4c-1.7-13.4-3.3-26.8-5-40.2c-0.3-2.1-1-4.4,2.4-4.2 c15.4,0.9,30.1,4,44.6,11c-12.8,19.6-25.4,38.8-38,58.1C143,87.4,142.7,87.3,142.4,87.2z"></path> <path class="becton-dickinson-st1" d="M42.9,61.4c10.5-13.2,22.9-22.9,37.8-30.8c7.2,21.8,14.4,43.2,21.9,65.8C82.3,84.5,62.8,73.1,42.9,61.4z"></path> <path class="becton-dickinson-st1" d="M162,96.4c7.5-22.5,14.7-43.7,22-65.6c14.9,7.5,27.1,17.4,37.8,30.6C202,72.9,182.6,84.3,162,96.4z"></path> <path class="becton-dickinson-st1" d="M178.7,110.6c14.9-15.5,29.7-30.9,45-46.8c10.1,13.3,16.6,27.5,20.5,43.9c-21.9,1.4-43.4,2.8-64.8,4.1
        C179.1,111.4,178.9,111,178.7,110.6z"></path> <path class="becton-dickinson-st1" d="M85.2,111.9c-21.3-1.4-42.7-2.8-64-4.2C21.6,97.1,32.3,73.9,41.3,64C56.2,79.6,71,95.2,85.9,110.7
        C85.7,111.1,85.4,111.5,85.2,111.9z"></path> <path class="becton-dickinson-st2" d="M208.2,153.5c-1.1,25.8-10.9,46.3-31.2,60.7c-25.9,18.4-53.8,20.1-81.6,4.7c-24.7-13.6-36.9-35.7-38.7-64.9 c4.7,2,8.6,3.9,12.7,5.3c7.6,2.5,12.3,6.4,15.2,14.8c6,17.2,19.4,27.2,38.2,31.9c-4.8-4.7-8-9-8.1-14.9c-0.1-5.8,1.9-10.7,6.3-14.4 c6.9-5.9,17.7-5.3,24.1,1.2c7.5,7.6,6.8,16.9-2.4,27.9c16.5-3.8,28.3-12.8,36-27.3c1.3-2.5,2.9-5.1,3.2-7.7 c0.7-5.9,4.2-8.4,9.3-10.2C196.7,158.6,202,156.1,208.2,153.5z"></path> </g> </svg>