<svg class="danaher-logo" version="1.1" xmlns="http://www.w3.org/2000/svg" xmlns:xlink="http://www.w3.org/1999/xlink" x="0px" y="0px" viewBox="0 0 1084 578" style="enable-background:new 0 0 1084 578;" xml:space="preserve"> <style type="text/css">
        .danaher-st0{fill:#013C81;}
    </style> <g> <path class="danaher-st0" d="M719,55c9.2,1,18.5,1.9,27.7,3.1c25.6,3.4,50.4,9.6,72.5,23.9c12,7.7,21.8,17.5,27.4,31
        c8.1,19.4,5.3,38.2-3.4,56.5c-10.3,21.8-26.1,39.3-44,55c-32.8,28.8-70.3,49.8-110.3,66.7c-49.6,21-101,34.7-154.6,40.4
        c-6.3,0.7-12.6,0.9-19.6,1.4c21.3-74.7,42.5-148.7,64-223.9c-5.1,1.4-9.2,2.4-13.3,3.6c-46,14.4-89.9,33.4-130.3,60
        c-28,18.5-53.6,39.6-72,68.3c-8,12.5-13.7,26.1-14.3,41.1c-0.9,24.3,11.2,41.5,30.8,54.2c18.8,12.2,39.9,18.1,61.8,21.6
        c36.9,6,73.7,4.6,110.5-0.5c12.7-1.7,25.3-4.1,38.1-5.6c-9.5,2.7-19,5.7-28.6,8.1c-41.7,10.7-83.9,17.1-127,16.5
        c-31.5-0.4-62.5-4.1-91.9-16.6c-16.9-7.2-31.8-17.1-41.7-33c-11.6-18.6-11.2-38.3-3.5-58c8.6-21.9,23.2-39.5,40.1-55.4
        c33.9-31.8,73.7-54.1,116-72.4c36.5-15.7,74.5-27.2,113.6-34.4c18.5-3.4,37.2-5.1,55.9-7.5c1.6-0.2,3.3,0,5.7,0
        c-21.6,74.5-43,148.6-64.7,223.3c1.8-0.1,2.9,0,3.9-0.3c56.1-16.7,109.3-39.4,156.6-74.5c23.2-17.2,44.2-36.5,58.6-62.1
        c7.6-13.4,12.3-27.6,11-43.4c-1.5-18.2-10.9-31.9-25-42.6c-18.9-14.4-41-21.1-64.1-25c-45.1-7.5-90-4.6-134.8,3.2
        c-4.2,0.7-8.5,1.5-13,1.3c5-1.5,10-3.1,15.1-4.5c36.3-9.9,73-16.7,110.6-18.7c1.6-0.1,3.2-0.6,4.9-0.9C698.3,55,708.7,55,719,55z"></path> <path d="M390,479.5c-3.2,10.8-6.5,22.5-10,34.1c-1.3,4.5-3.2,8.8-4.1,13.4c-0.9,4.7-3.3,5.7-7.6,5.4c-5.6-0.3-11.3-0.1-17.7-0.1
        c1.9-6.3,3.5-12,5.3-17.6c5.4-17.3,10.8-34.6,16-52c0.9-3,2.4-3.9,5.3-3.9c7.3,0.1,14.7,0.2,22,0c3.2-0.1,4.8,1.2,6.2,3.8
        c8.3,15.7,16.7,31.3,25,46.7c-0.1,0.3,0.2-0.4,0.4-1c4.1-15.4,8.2-30.9,12.4-46.3c0.3-1.2,2.1-3,3.2-3c7-0.3,13.9-0.1,21.7-0.1
        c-3.4,10.9-6.6,21.1-9.8,31.4c-3.8,12.4-7.8,24.8-11.4,37.3c-1.1,3.7-2.9,5-6.7,4.8c-5.5-0.3-11-0.3-16.5,0
        c-3.7,0.2-5.7-1.2-7.4-4.4C407.6,511.6,398.7,495.5,390,479.5z"></path> <path d="M49.1,530.7c4.1-13.2,8.1-26.2,12.1-39.2c2.8-9.1,5.5-18.2,8.5-27.2c0.6-1.7,2.3-4.2,3.7-4.3c22.6-2.1,45.2-3.5,67.4,2.9
        c1.4,0.4,2.8,1,4.2,1.6c20.3,9,24.6,29.1,9.9,46.1c-8.4,9.8-19.4,15.2-31.6,18c-23.6,5.6-47.6,4.4-71.6,3
        C51,531.6,50.3,531.1,49.1,530.7z M78.5,519.2c11.7,1.8,26.8,0.9,35.9-3.3c5.6-2.6,11.3-6,15.4-10.5c12.5-13.9,6.8-30.2-11.6-33.3
        c-6.7-1.1-13.6-0.6-20.4-1.1c-3.3-0.2-4.7,1.2-5.6,4.2c-2.6,8.9-5.5,17.8-8.3,26.7C82.2,507.5,80.4,513.2,78.5,519.2z"></path> <path d="M696.2,487.3c14.2,0,27.3,0.1,40.4-0.2c1.3,0,3.2-2,3.8-3.5c2.5-6.9,4.6-13.9,6.6-20.9c0.8-2.9,2.2-4,5.2-3.9
        c7,0.2,13.9,0.1,21.7,0.1c-2.3,7.7-4.3,14.7-6.5,21.6c-4.7,15.3-9.7,30.4-14.1,45.8c-1.4,5-3.7,6.5-8.7,6.2
        c-5.9-0.4-11.9-0.1-18.8-0.1c3.1-10.6,6-20.5,9.1-30.8c-1.8-0.2-3.1-0.5-4.4-0.5c-11.5,0-23,0.1-34.5-0.1c-3.1,0-4.8,0.7-5.7,4.1
        c-2,7.7-4.6,15.3-6.8,23c-0.8,3-2.1,4.5-5.4,4.3c-6.9-0.2-13.9-0.1-21.5-0.1c2.7-8.9,5-17,7.5-25.1c4.5-14.6,9.2-29.2,13.6-43.8
        c1-3.5,2.6-4.8,6.3-4.6c6.6,0.3,13.3,0.1,20.6,0.1C701.9,468.5,699.2,477.4,696.2,487.3z"></path> <path d="M1017.3,497.8c10.3,3.7,11,11.8,12.2,19.8c0.7,4.6,1.7,9.1,2.8,14.5c-8.2,0-16.2,0.1-24.2-0.2c-0.8,0-1.9-2.1-2.2-3.3
        c-0.9-4.4-1.6-8.8-2.3-13.3c-1.3-7.9-4-11.8-12.4-11.9c-11.6-0.2-11.5-1.4-14.8,9.6c-1.6,5.3-3,10.6-4.9,15.7
        c-0.5,1.4-2.2,3.3-3.4,3.3c-7.3,0.3-14.6,0.2-22.8,0.2c3.2-10.5,6.1-20.2,9.1-29.9c4-12.7,8.1-25.4,12-38.1
        c0.9-2.9,2.2-4.3,5.5-4.6c18.4-1.5,36.9-2.9,55.1,1.6c3.8,0.9,7.6,2.7,10.9,4.8c7.6,4.9,9.3,14.6,2.4,20.5
        C1034.8,491,1026.8,494.6,1017.3,497.8z M983.3,491.5c10.7,0.1,20.7,1.3,29.3-4.7c2.5-1.7,4.8-5.7,4.6-8.4
        c-0.2-2.3-3.9-5.7-6.5-6.2c-6.1-1.2-12.5-1.1-18.8-1.3c-1,0-2.7,1.4-3.1,2.5C986.8,479.1,985.3,484.8,983.3,491.5z"></path> <path d="M604.1,532.2c-8,0-15.7,0.1-23.3-0.1c-1.2,0-3-1.9-3.3-3.2c-0.9-3.9-1.2-7.9-1.6-11.9c-0.3-2.8-1.5-4-4.5-3.9
        c-9,0.2-18-0.1-27,0.2c-1.9,0.1-4.3,1.4-5.6,2.9c-3.6,4.2-6.6,8.8-10,13.1c-0.9,1.1-2.1,2.7-3.3,2.7c-8.2,0.2-16.5,0.1-26,0.1
        c5.2-6.6,9.6-12.1,13.9-17.6c13.8-17.3,27.6-34.6,41.3-52c2.2-2.8,4.5-3.9,8-3.8c8,0.2,16,0.1,24,0c2.4,0,4.1,0.2,4.6,3.1
        c4.2,22.7,8.5,45.5,12.7,68.2C604.3,530.5,604.2,531,604.1,532.2z M570.2,471.1c-7.3,10.4-14,19.9-21,29.7c8.7,0,16.6,0,24.9,0
        C572.8,491,571.6,481.6,570.2,471.1z"></path> <path d="M907.3,459.5c-1.1,3.6-1.9,7-3.4,10.1c-0.6,1.3-3,2.4-4.5,2.4c-12,0.2-24,0.3-36,0c-3.7-0.1-5.9,0.7-6.6,4.7
        c-0.6,3.4-2,6.6-3.2,10.8c14.3,0,28,0,42.5,0c-1.4,4.3-2.1,7.9-3.7,11c-0.6,1.2-3.1,2.1-4.8,2.2c-11.2,0.2-22.3,0.3-33.5,0
        c-3.8-0.1-5.4,1.4-6.2,4.8c-1,4.3-2.4,8.6-3.8,13.4c15.8,0,31.1,0,47.4,0c-1.3,4.3-2.3,8.1-3.7,11.7c-0.3,0.8-1.8,1.6-2.7,1.6
        c-23.3,0.1-46.6,0.1-70.8,0.1c1.9-6.6,3.6-12.6,5.5-18.5c5.3-17.2,10.6-34.3,16.1-51.4c0.5-1.4,2.5-3.3,3.8-3.3c22-0.2,44-0.1,66,0
        C906,458.9,906.3,459.1,907.3,459.5z"></path> </g> <path d="M298.1,532.2c-8,0-15.7,0.1-23.3-0.1c-1.2,0-3-1.9-3.3-3.2c-0.9-3.9-1.2-7.9-1.6-11.9c-0.3-2.8-1.5-4-4.5-3.9
    c-9,0.2-18-0.1-27,0.2c-1.9,0.1-4.3,1.4-5.6,2.9c-3.6,4.2-6.6,8.8-10,13.1c-0.9,1.1-2.1,2.7-3.3,2.7c-8.2,0.2-16.5,0.1-26,0.1
    c5.2-6.6,9.6-12.1,13.9-17.6c13.8-17.3,27.6-34.6,41.3-52c2.2-2.8,4.5-3.9,8-3.8c8,0.2,16,0.1,24,0c2.4,0,4.1,0.2,4.6,3.1
    c4.2,22.7,8.5,45.5,12.7,68.2C298.3,530.5,298.1,531,298.1,532.2z M264.2,471.1c-7.3,10.4-14,19.9-21,29.7c8.7,0,16.6,0,24.9,0
    C266.8,491,265.6,481.6,264.2,471.1z"></path> </svg>