<svg class="exide-logo" version="1.1" xmlns="http://www.w3.org/2000/svg" xmlns:xlink="http://www.w3.org/1999/xlink" x="0px" y="0px" viewBox="0 0 640 191" style="enable-background:new 0 0 640 191;" xml:space="preserve"> <style type="text/css">
        .exide-st0{fill-rule:evenodd;clip-rule:evenodd;fill:#034EA2;}
    </style> <g> <path class="exide-st0" d="M84.1,80.6c-1.7,3.4-3.6,6.6-6.4,8.9c-8.5,6.8-33.6,3.2-33.6,6.4c0,3,24.9,0.6,30.6,7.4c6,7-1.5,28.9,1.5,28.9
        c2.1,0,4-10.8,7.9-19.8c1.7-4,4-7.7,6.8-9.8c9.4-7.2,33.2-3.6,33.2-6.8c0.2-3.6-24.7,0.6-31-6.6c-6.4-7.4,1.9-27.9-1.3-27.9
        C89.9,61.5,88.4,71.9,84.1,80.6L84.1,80.6L84.1,80.6z M488.7,145.1L516.1,26H622l-6.4,30.2h-60.2l-6.2,22.7h56.6l-6.6,29.8h-54.4
        l-6.4,25.3h58.7l-6.8,32.7H488.7h-4.9L488.7,145.1L488.7,145.1L488.7,145.1z M488.7,103c1.1-3.8,2.1-7.9,3-12.1
        c3.6-18.3,2.6-32.5-3-42.7C480.4,32.8,462.1,26,433.6,26h-8.9h-46.6L356,123.2l-9.8,43.6h9.8h54c5.1,0,10-0.2,14.7-1.1
        C458.1,160.6,478.9,137.2,488.7,103L488.7,103L488.7,103z M424.7,56.6c22.3,0,32.1,13,27.4,33.2c-4.5,19.6-10.6,36.4-27.4,42.9
        c-4.9,1.9-10.8,3-17.9,3H396l17.9-79.1h10.4C424.5,56.6,424.5,56.6,424.7,56.6L424.7,56.6L424.7,56.6z M356,72.6l-20,94.2h-28.3
        h-11.7l11.7-55.1L325.8,26H356h10L356,72.6L356,72.6L356,72.6z M307.8,39.8L319.5,26h-11.7h-35.7l-27,33.2L230,26h-46.6l30.8,67.2
        l-48.7,55.5l-15.7,18.1H84.1H43.3l13.4-58.3H18l5.3-29.8h40.4L75.6,26h8.5h81.4h15.9l-6.4,30.2h-9.6H116l-5.3,22.7h47.2l-6.6,29.8
        h-46.1L99,134h57.6l-6.8,32.7h15.7h32.1l32.3-36.1l15.7,36.1h45.7l-30-72.3L307.8,39.8L307.8,39.8L307.8,39.8z"></path> </g> </svg>