<svg class="general-electric-logo" version="1.1" xmlns="http://www.w3.org/2000/svg" xmlns:xlink="http://www.w3.org/1999/xlink" x="0px" y="0px" viewBox="0 0 412 394" style="enable-background:new 0 0 412 394;" xml:space="preserve"> <style type="text/css">
  .general-electric-st0{fill:#3A73B8;}
</style> <g> <path class="general-electric-st0" d="M195.7,12.2c36.6-2.8,73.9,5.8,105.6,24.1c25.4,14.6,47.3,35.3,63.2,59.9c19.7,30.1,30.2,66.2,29.9,102.2
    c-0.2,37.6-12.2,75.1-34.1,105.8c-22.2,31.4-54.5,55.6-90.9,68c-32.4,11.2-67.8,13-101.2,5.5c-35-7.8-67.5-26.2-92.4-52.1
    c-26.4-27.3-44.2-62.9-49.7-100.5c-5.4-33.5-0.9-68.5,12.2-99.7c12.1-29.1,31.9-54.9,56.7-74.3C123.6,28.6,159.2,14.8,195.7,12.2
     M195.7,21.1c-21.7,1.6-43.1,7.4-62.7,16.8c-31.6,15.2-58.6,40-76.1,70.4c-26.1,43.9-31.1,99.4-14,147.4c11,31.2,31,59.1,56.9,79.7
    c30.1,23.9,68.2,37.6,106.7,38c28.1,0.6,56.3-5.8,81.4-18.4c31.9-15.8,58.8-41.7,75.9-72.9c17.1-31,24.7-67.3,20.9-102.6
    c-5.1-57.2-40.8-110.2-91.2-137.3C263.8,25.8,229.3,18.4,195.7,21.1z"></path> <path class="general-electric-st0" d="M164.5,37.9c30.8-8.6,64.1-8.2,94.6,1.6c1.3,0.4,2.3,1.4,3.4,2.3c-5-0.4-9.6-2.6-14.6-3.5
    c-12.4-2.5-25.4-3.7-38-1.8c-7.9,1.4-16.2,4.5-21.2,11.1c-3.8,4.9-4.2,12.6,0.2,17.3c4.9,5.1,13.5,4.9,18.9,0.7
    c6.4-4.7,12.5-10.2,20.5-12c16.1-4,33.1-0.8,48.7,3.9c18.8,5.1,36.5,14.4,50.9,27.5c24,21.2,38.4,51.6,43.9,82.8
    c4.8,26.6,3.3,54.4-4.9,80.3c-0.3,1.2-1.1,1.9-2.3,2.1c4.8-17.6,8.4-36.2,4.8-54.3c-1.9-8.8-6.2-18.6-15.4-21.6
    c-7.1-2.5-15.6,2.4-16.2,10c-1.3,8.2,5.4,14.1,9.5,20.3c9,12.9,7.9,29.6,5.7,44.3c-4.1,20-10.8,39.9-22.9,56.6
    c-18.7,26.8-48.5,44.6-80,52.1c-27.4,6.5-56.3,6.5-83.7-0.2c-3.6-1.1-7.7-1.6-10.5-4.3c5.2,0,10,2.2,15.1,3.1
    c13.9,2.5,28.5,4.1,42.4,0.6c6.3-1.7,12.7-4.7,16.7-10.1c3.7-5,3.6-12.7-0.9-17.3c-3.9-4.1-10.4-5-15.4-2.4
    c-5.9,3.2-10.5,8.5-16.5,11.5c-12.2,5.9-26.4,5.1-39.4,2.9c-21.6-4.2-43-12.1-60.4-25.9c-23.1-17.8-39.2-43.7-47-71.6
    c-8.3-29.2-8.4-60.7-0.8-90.1c1.3-3,0.8-7.8,4.3-9.3c-4.4,16.8-7.9,34.4-5.2,51.8c1.4,7.7,4.1,15.9,10.5,20.9
    c4.4,3.7,11.4,5,16.3,1.5c5.2-3.1,7-10.3,4.5-15.7c-2.6-6-7.7-10.4-10.7-16.3c-6.4-11.7-5.7-25.7-4-38.6
    c3.6-20.6,10.6-40.9,22.7-58C105.8,63.9,134.1,46.1,164.5,37.9 M168.7,100.3c-10,5.4-16.9,15.1-22,25c-5.4,10.2-7.6,21.7-8.6,33.1
    c-4.9-0.7-8.9-4.5-10.1-9.3c-2.3-7,0.1-14.3,1.4-21.2c0.6-2-1-3.7-1.8-5.3c-4.2-0.3-8.5,1.8-10.4,5.7c-5.7,10.7-5.2,25.2,2.7,34.7
    c4.5,5.8,11.7,8.6,18.9,9.4c2.4,7.4,7.1,14.6,14.7,17.6c9.2,3.7,19.4-0.2,27.4-5c-0.3,3-0.4,6-1.5,8.9c-2.8,2.3-6.3,3.6-9.4,5.4
    c-15.5,8.2-31.3,16.4-44.3,28.3c-9.5,8.9-17,20.8-18.4,33.9c-0.7,10.3,3.4,21.7,12.5,27.3c9.5,6.3,21.9,5.9,32.2,2
    c13-5,22.7-16,29.1-28c9.5-17,11.1-36.9,12.5-55.9c0.4-2.2-0.1-5.4,2.5-6.3c15.5-8.7,30.5-18.2,44.9-28.6c1.7,2.1,3.4,4.2,5,6.4
    c-7.4,4.4-14.8,9.2-20.4,15.9c-20.9,22.9-21.2,62.1,0.7,84.4c11.2,11.8,28.4,16.9,44.3,14.5c14.7-2.1,28-11.3,35.4-24.1
    c9.9-16.3,8.2-39-4.6-53.2c-12-13.2-35.3-13-47,0.5c-9.2,9.7-9.5,26.8,0.1,36.3c3.9,3.9,10.7,6.2,15.6,2.9c3.2-2.3,2.9-7.1,0.3-9.8
    c-3.3-4-7.2-8.6-6.2-14.1c1-7.2,9.1-11.6,15.9-10.1c5.8,0.9,10.5,5.5,12.6,10.8c5.1,12.1,2.2,27.2-6.9,36.6
    c-9.7,10.1-26.6,11.7-38.3,4.2c-10.4-6.4-16.3-18.3-18.1-30c-1.9-14.2,0.8-29.5,9.6-41.1c5.7-7.3,13.6-13.3,22.7-15.5
    c7.6,0.6,15.6,2,23-0.5c3.5-1.2,6.9-5.1,5.2-9c-1.9-4-6.7-5.1-10.7-6c-5.9-1.2-11.8,0.4-17.6,1.5c-4-1.4-6.2-5.6-7.7-9.4
    c11.2-8.4,22.3-17.5,30-29.5c4.4-7.2,7.3-16,5.2-24.4c-1.6-5.6-6.2-10.3-12.1-11.4c-9.7-2.5-19.7,2.5-26.3,9.4
    c-10.6,11.5-16,27.5-15.5,43.2c-0.1,3.2,1.1,6.6,0.2,9.7c-8,6.4-16.9,11.6-25.5,17.2c-4.9,2.9-9.6,6.2-14.9,8.5
    c0.1-5,0.4-10,1.8-14.8c3.8-5.2,8.5-9.7,11.5-15.4c2.2-4,4.3-9,2-13.3c-2.1-3.2-6.7-2.9-9.8-1.3c-6.5,3.2-10,10.1-12.6,16.5
    c-1.8,4.1-2,9.2-5.8,12.1c-5.3,4.7-11.8,9.3-19.2,9.1c-4.2,0-7.1-4-8-7.7c11.7-4.5,21.5-13,29.4-22.6c7.3-9.4,13.2-20.6,14.2-32.6
    c0.6-6.1-1.6-13-7.2-16.1C184.2,95.6,175.5,96.7,168.7,100.3z"></path> <path class="general-electric-st0" d="M175.4,111.5c2.7-2.1,7.2-1.2,8.5,2.1c1,4.1-0.5,8.3-2.3,11.9c-5,10.1-12.4,18.9-20.8,26.3
    c-2.1,1.9-4.5,3.4-7.1,4.5c0.3-9,3.4-17.7,7.3-25.8C164.5,123.4,168.6,116.1,175.4,111.5z"></path> <path class="general-electric-st0" d="M262.9,115c2.4-2.8,6.6-5.6,10.2-3.7c4,2.4,1.9,7.7,0.3,11c-5.5,10.2-13.8,18.8-22.7,26.2
    C250.7,136.4,255,124.2,262.9,115z"></path> <path class="general-electric-st0" d="M143,232.6c10.4-8.8,22-16.3,34.4-22.1c-1.3,13.7-4.5,27.3-9.7,40.1c-4.4,10.3-11,20.9-22,25.1
    c-5.7,2.1-13.1,3.5-18-1c-4.7-4.1-4.3-11.1-3-16.6C127.7,247.7,135.3,239.6,143,232.6z"></path> </g> </svg>