<svg class="medtronic-logo" version="1.1" xmlns="http://www.w3.org/2000/svg" xmlns:xlink="http://www.w3.org/1999/xlink" x="0px" y="0px" viewBox="0 0 640 207.5" style="enable-background:new 0 0 640 207.5;" xml:space="preserve"> <style type="text/css">
	.medtronic-st0{fill:#004B87;}
</style> <g> <path class="medtronic-st0" d="M13,106.9c0.2-2.6,0.5-5.3,0.7-7.9c0.7-10.7,1.3-21.3,1.9-32c0.5-8.4,1-16.7,1.4-25.1c0.6-9.7,1.1-19.4,1.7-29
		c0-0.3,0.1-0.6,0.2-1.1c0.6,0,1.1,0,1.6,0c8.4,0,16.9,0,25.3,0c1.2,0,1.8,0.2,2.1,1.6c5,23.4,10.2,46.8,15.3,70.2
		c0.1,0.5,0.3,0.9,0.7,1.5c0.3-1.4,0.6-2.7,0.9-4.1c3.4-15.9,6.8-31.7,10.2-47.6c1.5-6.8,3-13.6,4.5-20.4c0.2-0.8,0.4-1.3,1.3-1.3
		c9,0,18.1,0,27.1,0c0.2,0,0.3,0.1,0.6,0.2c0.1,1.9,0.3,3.8,0.4,5.7c0.8,13.7,1.6,27.4,2.4,41.1c0.9,14.7,1.8,29.3,2.7,44
		c0.1,1.8,0.2,3.5,0.3,5.3c0,0.8-0.1,1.3-1,1.3c-5.4,0-10.9,0-16.3,0c-0.2,0-0.3-0.1-0.6-0.2c-1.4-25.6-2.8-51.2-4.2-77.4
		c-0.3,0.8-0.5,1.2-0.5,1.5c-5.7,24.8-11.4,49.6-17.1,74.4c-0.3,1.4-0.9,1.7-2.2,1.7c-5.9-0.1-11.9-0.1-17.8,0c-1.6,0-2.3-0.4-2.7-2
		c-5.6-24.7-11.3-49.3-17-73.9c-0.1-0.4-0.3-0.9-0.7-1.2c-0.2,4-0.3,8-0.5,12c-0.7,14.7-1.5,29.3-2.3,44c-0.3,6.4-0.7,12.8-1,19.3
		c-0.1,1.5-0.6,2-2.1,1.9c-4.5-0.1-9.1,0-13.6,0c-0.6,0-1.2,0.1-1.8,0.1C13,108.7,13,107.8,13,106.9z"></path> <path class="medtronic-st0" d="M544.9,11c0.5,0.2,1,0.5,1.5,0.6c4.9,1.7,7.6,6.3,6.8,11.7c-0.7,4.7-5.2,8.4-10.1,8.5c-5,0.1-9.4-3.7-10.3-8.9
		c-0.8-4.7,2.1-9.6,6.8-11.3c0.6-0.2,1.1-0.4,1.7-0.6C542.4,11,543.7,11,544.9,11z"></path> <path class="medtronic-st0" d="M267.8,53c0,0.7,0,1.3,0,1.9c0,11.3,0,22.5,0,33.8c0,5.8,2.7,8.1,8.4,7.2c0.5-0.1,1-0.1,1.5-0.2
		c0,4.6,0,9.1,0,13.8c-3.8,1-7.7,1.1-11.6,0.6c-6.9-0.8-11.7-4.3-14-11.4c-0.5,0.6-0.8,1-1.2,1.5c-6.4,8.5-15.2,11.5-25.5,10.6
		c-14.7-1.4-25.6-12.3-28.4-27.8c-1.7-9.8-1-19.5,3.7-28.5c8.9-17.2,28.8-20.6,41.5-13.8c2.8,1.5,5.3,3.8,8.1,5.8c0-5.6,0-11.3,0-17
		c0-5.8,0-11.5,0-17.4c5.8,0,11.5,0,17.4,0c0,8.8,0,17.7,0,26.7c6.6,0,13,0,19.5,0c0-0.6,0.1-1.2,0.1-1.8c0-4.5,0-9,0-13.5
		c0-0.8,0-1.5,1.2-1.5c5.2,0,10.3,0,15.5,0c0.2,0,0.4,0.1,0.8,0.2c0,2.3,0,4.5,0,6.8c0,2.8,0.1,5.5,0,8.3c0,1.3,0.4,1.6,1.6,1.6
		c5-0.1,10.1,0,15.1,0c0.6,0,1.2,0,2,0c0,4.7,0,9.3,0,14.2c-6.2,0-12.3,0-18.6,0c0,0.8-0.1,1.3-0.1,1.8c0,10.4,0,20.9,0,31.3
		c0,1.2,0.2,2.3,0.4,3.4c1,3.9,3.9,6.4,8,6.5c3.3,0.1,6.7-0.3,10.2-0.4c0,0.1,0.1,0.5,0.1,0.8c0,3.9,0,7.9,0,11.8
		c0,0.8-0.1,1.3-1,1.5c-7.4,1.6-14.7,1.8-22-0.7c-7.4-2.6-11.4-8.2-12.7-15.7c-0.4-2.4-0.6-4.8-0.6-7.3c-0.1-10.3,0-20.6,0-30.9
		c0-0.6,0-1.3,0-2C280.8,53,274.4,53,267.8,53z M213.9,74.1c0.6,3.2,0.9,6.5,1.8,9.6c2.2,7.2,7.9,11.9,14.7,12.3
		c8.8,0.5,15.2-2.8,18.4-10.2c3.5-8.2,3.5-16.7-0.6-24.7c-3.2-6.3-8.8-9.1-15.8-9.1c-7,0.1-12.2,3-15.4,9.4
		C214.9,65.3,214.2,69.6,213.9,74.1z"></path> <path class="medtronic-st0" d="M137.7,82.5c1.3,5.6,4.5,9.3,9.4,11.4c5.8,2.5,11.8,2.7,18,2.2c7-0.6,13.7-2.7,19.8-6.2
		c0.2-0.1,0.4-0.2,0.6-0.3c0.1,0,0.2,0,0.6,0.1c0,0.6,0,1.1,0,1.7c0,3.4-0.1,6.9,0,10.3c0.1,1.6-0.5,2.4-1.9,3.1
		c-7.9,4.2-16.3,6.1-25.3,6c-7.4-0.1-14.6-1.2-21.2-4.7c-10.7-5.5-16.3-14.5-17.5-26.3c-0.9-8,0.1-15.8,3.5-23.2
		c5.2-11.1,14-17.3,26.1-19c7.8-1.1,15.4-0.2,22.4,3.5c9.8,5.2,14.9,13.7,16.7,24.4c0.9,5,0.7,10,0.1,15.1c-0.2,1.4-0.6,1.8-2,1.8
		c-15.7-0.1-31.4,0-47.1,0C139.3,82.5,138.6,82.5,137.7,82.5z M172.8,68.8c-0.4-11.9-7.9-17.2-18-16.9c-12.1,0.3-17,9.9-17.1,16.9
		C149.3,68.8,161,68.8,172.8,68.8z"></path> <path class="medtronic-st0" d="M408.6,37.2c16.3,0.5,27.9,6.2,34.8,19.6c7.6,14.8,4.4,33.5-7.5,44.5c-7.7,7.2-17.2,9.9-27.5,9.4
		c-11.8-0.5-21.6-5.1-28.6-14.9c-12.8-18-7.7-49.1,18.7-56.9C402.3,37.9,406.3,37.6,408.6,37.2z M410.2,95.7
		c9.2,0,15.7-4.7,18.2-13.3c1.2-4.3,1.4-8.6,0.8-13c-1.2-8.2-6-16-16.8-17c-8-0.7-15.6,2.6-19.2,10.9c-2.2,5.1-2.5,10.5-1.6,16
		C392.9,89.4,400.2,95.7,410.2,95.7z"></path> <path class="medtronic-st0" d="M473.6,38.9c0,3.6,0,7,0,10.5c0.1,0,0.2,0.1,0.3,0.1c0.2-0.3,0.4-0.6,0.6-0.9c4.6-7.9,11.6-11.3,20.7-11.2
		c15.4,0.2,24,10.5,26.3,23.4c0.5,2.8,0.7,5.7,0.8,8.6c0.1,12.6,0,25.2,0,37.8c0,0.7,0,1.4,0,2.2c-0.8,0-1.4,0.1-2,0.1
		c-4.4,0-8.8,0-13.1,0c-2.2,0-2.2,0-2.2-2.1c0-12.3,0-24.6,0-36.9c0-2.5-0.3-5-0.8-7.4c-2-8.8-8.7-11.9-16.6-10.8
		c-7.4,1.1-12,6.2-12.9,13.8c-0.2,1.8-0.3,3.6-0.3,5.5c0,11.9,0,23.9,0,35.8c0,0.7,0,1.3,0,2.1c-0.5,0.1-0.9,0.2-1.3,0.2
		c-4.9,0-9.8,0-14.6,0c-1,0-1.5-0.3-1.5-1.4c0-22.7,0-45.5,0-68.2c0-0.3,0.1-0.5,0.1-0.9C462.4,38.9,467.9,38.9,473.6,38.9z"></path> <path class="medtronic-st0" d="M621,56.9c-3.8-1.3-7.3-2.8-11-3.7c-4.1-1-8.3-1-12.5,0.1c-6.7,1.7-11.1,5.8-13.3,12.3
		c-1.9,5.5-1.9,11.1-0.2,16.7c2.5,8.1,9.3,13.1,17.9,13.5c6.2,0.3,12.1-1.1,17.6-4c0.4-0.2,0.9-0.4,1.6-0.8c0,2.5,0,4.8,0,7.1
		c0,2.4,0,4.9,0,7.3c0,0.5-0.4,1.3-0.8,1.5c-14.7,7.1-36.7,5.5-48.3-10.5c-5.8-8-7.8-17-6.7-26.8c1.3-11.6,6.6-20.9,16.8-26.9
		c12.3-7.2,25.1-7,38-1.5c0.5,0.2,1,0.9,1,1.4C621.1,47.4,621,52.2,621,56.9z"></path> <path class="medtronic-st0" d="M372.7,55c-2.8-0.2-5.4-0.5-8-0.4C355,55,349.2,61.2,349.1,71c-0.1,12,0,24.1,0,36.1c0,0.7,0,1.3,0,2.1
		c-5.8,0-11.5,0-17.4,0c0-23.4,0-46.9,0-70.4c5.4,0,10.9,0,16.6,0c0,3.9,0,7.8,0,11.7c0.1,0,0.3,0.1,0.4,0.1
		c0.3-0.5,0.5-1.1,0.8-1.6c2.6-5.4,6.4-9.5,12.6-10.8c3.1-0.6,6.3-0.5,9.4,0.4c0.5,0.1,1.2,0.7,1.2,1C372.7,44.8,372.7,50,372.7,55z
		"></path> <path class="medtronic-st0" d="M563,109.4c-5.8,1.2-11.5,1.5-17.1-0.2c-6.8-2.1-10.4-7-11.6-13.8c-0.3-1.7-0.4-3.5-0.4-5.3
		c0-16.3,0-32.6,0-48.9c0-0.7,0-1.4,0-2.3c5.8,0,11.6,0,17.6,0c0,0.7,0,1.3,0,2c0,15.9,0,31.8,0,47.7c0,5.4,2.5,7.7,7.9,7.4
		c1.2-0.1,2.4-0.2,3.7-0.3C563,100.3,563,104.7,563,109.4z"></path> <path class="medtronic-st0" d="M274.7,192.2c0.5-0.7,0.8-1.1,1.1-1.5c0.1-0.2,0.3-0.4,0.4-0.6c3.5,2.4,7.3,3.1,11.3,2.4
		c4-0.7,6.6-2.9,7.3-6.9c0.4-2.3,0.3-4.7,0.5-7.4c-1.3,1.1-2.2,2-3.2,2.8c-5.8,4.2-17.4,3.2-19.2-8.1c-0.4-2.6-0.4-5.5,0.1-8.1
		c1.3-6.3,7-10.7,14-10.7c3.2,0,6.3,0.9,9.5,1.4c0.9,0.1,1.4,0.7,1.3,1.7c0,8.5,0,17.1-0.1,25.6c0,1.4-0.3,2.8-0.6,4.1
		c-0.9,4.3-3.6,6.9-7.8,7.9c-4.1,1-8.1,0.8-12-1C276.4,193.3,275.6,192.7,274.7,192.2z M295.2,165.2c0-2.1,0-4.2,0-6.3
		c0-0.5-0.3-1.3-0.7-1.4c-4.9-1.5-9.8-1.9-14.4,1.2c-4.4,3-6.1,8.7-4.4,14.8c1.4,5,5.5,7.9,10.4,7.3c5.4-0.7,9.1-4.7,9.1-9.9
		C295.2,168.9,295.2,167.1,295.2,165.2z"></path> <path class="medtronic-st0" d="M412.8,176.9c0.2,0.1,0.4,0.2,0.6,0.4c0.4,0.3,0.8,0.6,1.2,1c-1.3,1.9-3.1,3-5.1,3.7c-8,3-17.4,0.2-19.8-9.3
		c-1.2-5-0.4-9.7,2.8-13.8c3.3-4.3,8.8-5.9,14.2-4.3c5,1.5,8.5,5.9,9,11.6c0.3,3.1,0.3,3.1-2.8,3.1c-6.3,0-12.6,0-19,0
		c-1.4,0-1.9,0.3-1.6,1.8c0.8,4.2,2.9,7.5,7,9c4.5,1.7,8.6,0.7,12.4-2.1c0.2-0.2,0.4-0.4,0.6-0.6C412.4,177.1,412.6,177,412.8,176.9
		z M392.4,166.8c6.9,0,13.7,0,20.5,0c-0.1-6.5-4.4-10.5-10.9-10.4C396.8,156.5,392.3,161.3,392.4,166.8z"></path> <path class="medtronic-st0" d="M327.6,176.8c0.6,0.5,1.2,1,1.8,1.5c-2.3,2.8-5.3,4.1-8.6,4.6c-8.1,1.2-14.5-2.8-16.4-10.3
		c-1.6-6.6,0.9-13.7,6.2-16.8c8.4-5.1,18.9,0.3,19.8,10.2c0.3,3.2,0.3,3.2-2.9,3.2c-6.3,0-12.5,0-18.8,0c-1.4,0-2,0.2-1.7,1.9
		c0.8,4.2,2.9,7.5,7,9c4.5,1.6,8.6,0.6,12.4-2.2C326.8,177.5,327.1,177.2,327.6,176.8z M327.6,166.8c0-6.6-4.8-10.9-11.5-10.4
		c-4.9,0.4-9.5,5.7-8.9,10.4C314.1,166.8,320.8,166.8,327.6,166.8z"></path> <path class="medtronic-st0" d="M150.9,169.2c0.3,4.7,2.1,8.1,5.9,10.3c3.6,2,9.6,2.1,14.8-2.6c0.5,0.4,1.1,0.9,1.7,1.4
		c-0.2,0.3-0.4,0.6-0.6,0.8c-5.5,5.7-16.4,5.3-21.5-0.7c-5.2-6.2-4.2-16.9,2.1-21.7c4-3.1,8.5-3.6,13.2-1.7
		c4.7,1.8,6.9,5.7,7.8,10.4c0.2,1.2,0.3,2.4,0.4,3.8c-4.1,0-8,0-12,0C158.9,169.2,155.1,169.2,150.9,169.2z M171.8,166.8
		c-0.5-4-1.7-7.4-5.3-9.3c-3.7-1.9-7.4-1.8-10.9,0.6c-2.9,2-4.3,5-4.6,8.6C158.1,166.8,164.8,166.8,171.8,166.8z"></path> <path class="medtronic-st0" d="M383,182.3c-0.9,0-1.6,0-2.5,0c0-0.7,0-1.4,0-2c-0.1-5.2,0-10.4-0.2-15.6c-0.1-3.4-1-6.6-4.7-7.8
		c-4.1-1.4-8.4-0.1-11,3.1c-2.2,2.7-2.9,5.9-3,9.3c0,4.3,0,8.6,0,13.1c-0.8,0-1.5,0-2.4,0c0-13.3,0-26.6,0-40c0.4-0.1,0.7-0.1,1-0.1
		c0.4,0,0.8,0.1,1.4,0.1c0,5.8,0,11.5,0,17.7c0.6-0.7,0.9-1,1.1-1.3c3.4-4.5,9.8-6.1,15-3.8c3.4,1.5,4.9,4.4,5.1,7.8
		c0.3,4.6,0.2,9.3,0.3,14C383,178.5,383,180.4,383,182.3z"></path> <path class="medtronic-st0" d="M141.4,182.4c-0.8,0-1.4,0-2.3,0c0-0.7-0.1-1.3-0.1-2c0-5,0-10.1-0.1-15.1c0-1.1-0.2-2.2-0.4-3.3
		c-1.3-5.1-6.9-7.3-12-4.7c-4.5,2.3-6.1,6.3-6.2,11c-0.1,4,0,8.1,0,12.1c0,0.6,0,1.2,0,1.9c-0.9,0-1.6,0-2.5,0c0-13.4,0-26.7,0-40
		c0.8,0,1.5,0,2.4,0c0,5.7,0,11.5,0,17.2c0.1,0.1,0.3,0.1,0.4,0.2c0.3-0.4,0.6-0.8,0.9-1.2c3.3-4.3,9.7-5.9,14.7-3.7
		c3.4,1.5,5,4.4,5.2,7.7C141.6,169.1,141.4,175.6,141.4,182.4z"></path> <path class="medtronic-st0" d="M266.6,168.6c0,8.2-6.3,14.5-14.5,14.5c-7.8,0-14.1-6.6-14-14.7c0.1-8,6.5-14.5,14.3-14.5
		C260.3,153.9,266.7,160.5,266.6,168.6z M252.3,156.3c-6.4,0-11.5,5.3-11.5,12.1c0,6.7,5.2,12.4,11.5,12.4c6.3,0,11.5-5.5,11.6-12.2
		C264,161.9,258.7,156.4,252.3,156.3z"></path> <path class="medtronic-st0" d="M17.4,182.3c-1,0-1.7,0-2.6,0c0-13.3,0-26.6,0-40c7.9,0,15.8,0,23.8,0c0,0.8,0,1.6,0,2.5c-7.1,0-14,0-21.2,0
		c0,1.2,0,2.3,0,3.3c0,3.5,0,7,0,10.5c0,1.2,0.4,1.6,1.6,1.6c4.3-0.1,8.5,0,12.8,0c0.7,0,1.3,0,2.1,0c0,0.9,0,1.7,0,2.6
		c-5.4,0-10.8,0-16.5,0C17.4,169.3,17.4,175.8,17.4,182.3z"></path> <path class="medtronic-st0" d="M64.8,182.3c-0.7,0-1.4,0-2.2,0c-0.1-1.7-0.3-3.3-0.4-5.2c-0.5,0.6-0.9,1.1-1.2,1.5c-3.7,5.1-10.8,5.4-15,3.3
		c-3.3-1.7-4.5-4.8-4.6-8.2c-0.2-6.1-0.1-12.3-0.1-18.5c0-0.2,0.1-0.3,0.2-0.6c0.7,0,1.5,0,2.4,0c0,3.6,0,7,0,10.5
		c0,2.8-0.1,5.7,0.3,8.5c1,6.5,7.1,9.1,12.7,5.7c3.9-2.4,5.3-6.1,5.4-10.5c0.1-4.3,0-8.7,0-13c0-0.4,0.1-0.7,0.1-1.2
		c0.8,0,1.6,0,2.4,0C64.8,164,64.8,173.1,64.8,182.3z"></path> <path class="medtronic-st0" d="M208.8,144.5c0-0.6-0.1-1-0.1-1.3c0-0.3,0.1-0.5,0.1-1c0.6,0,1.2-0.1,1.8-0.1c10.1,0,20.3,0,30.4,0
		c2,0,2,0.1,1.6,2.4c-1.5,0-3.1,0-4.7,0c-2.9,0-5.9,0.1-8.8,0c-1.6-0.1-2.1,0.4-2.1,2c0.1,11.2,0,22.4,0,33.6c0,0.7,0,1.4,0,2.2
		c-1,0-1.7,0-2.7,0c0-0.7,0-1.4,0-2.1c0-11,0-22.1,0-33.1c0-2.6,0-2.6-2.5-2.6c-3.7,0-7.4,0-11.1,0
		C210.1,144.5,209.5,144.5,208.8,144.5z"></path> <path class="medtronic-st0" d="M110.1,157.1c-2.9,0-5.8,0-8.9,0c0,0.7,0,1.3,0,1.9c0,5,0,10,0,15c0,0.8,0.1,1.5,0.2,2.3
		c0.2,1.8,0.8,3.5,2.8,4.2c2.2,0.7,4.3,0.4,6-1.2c0.3-0.3,0.6-0.5,1-0.9c0.5,0.5,0.9,1,1.3,1.4c-1.8,3.3-5.7,3.8-9.2,3
		c-3-0.6-4.7-3.2-4.7-7.1c-0.1-5.5,0-11,0-16.5c0-0.7,0-1.3,0-2.1c-1.9,0-3.7,0-5.5,0c0-0.9,0-1.6,0-2.4c1.8,0,3.5,0,5.5,0
		c0-3.1,0-6,0-9c0.9,0,1.7,0,2.6,0c0,2.9,0,5.8,0,9c2.5,0,4.9,0,7.3,0C110.5,154.6,110.6,154.8,110.1,157.1z"></path> <path class="medtronic-st0" d="M339.9,157.1c-2,0-3.6,0-5.2,0c-0.7-2.1-0.5-2.4,1.5-2.4c1.1,0,2.1,0,3.2,0c0.1,0,0.2-0.1,0.5-0.2
		c0-2.8,0-5.8,0-8.8c0.9,0,1.6,0,2.7,0c0,2.9,0,5.9,0,9c3.2,0,6.1,0,9.1,0c0,0.9,0,1.6,0,2.4c-3,0-5.9,0-8.8,0
		c-0.1,0.3-0.2,0.5-0.2,0.6c0,6,0,12,0.2,17.9c0,2,0.6,4,2.7,4.7c2.4,0.9,4.6,0.4,6.4-1.4c0.2-0.2,0.3-0.3,0.5-0.7
		c0.6,0.6,1.1,1,1.6,1.5c-2.2,3.3-5.4,3.6-9.1,3c-2.8-0.5-4.5-2.4-4.7-6c-0.3-5.7-0.2-11.5-0.3-17.3
		C339.9,158.8,339.9,158,339.9,157.1z"></path> <path class="medtronic-st0" d="M87.9,157c-7.6,0.3-11.5,4.3-11.5,12c0,3.8,0,7.7,0,11.5c0,0.6,0,1.2,0,1.9c-1,0-1.7,0-2.6,0
		c0-9.2,0-18.3,0-27.6c0.7,0,1.5,0,2.4,0c0,1.9,0,3.6,0,5.8c0.5-0.6,0.8-0.9,1-1.1c2-2.9,4.8-4.7,8.4-5
		C88,154.2,88.3,154.4,87.9,157z"></path> <path class="medtronic-st0" d="M181.9,154.8c2.3-0.3,2.4-0.3,2.4,1.8c0,1.1,0,2.2,0.3,3.5c0.3-0.4,0.6-0.7,0.9-1.1c2.2-3,5.2-4.4,8.8-4.6
		c1.8-0.1,2.2,0.5,1.6,2.7c-7.5,0.3-11.5,4.4-11.5,12.1c0,4.4,0,8.7,0,13.2c-0.9,0-1.7,0-2.5,0C181.9,173.2,181.9,164,181.9,154.8z"></path> <path class="medtronic-st0" d="M423.2,154.8c0.7,0,1.3,0,2.2,0c0.1,1.7,0.2,3.5,0.3,5.5c0.4-0.4,0.6-0.7,0.8-0.9c2-2.9,4.8-4.5,8.3-4.9
		c2.5-0.2,2.6-0.2,2.4,2.5c-0.1,0.1-0.3,0.2-0.4,0.2c-6.2-1-11,4.8-11.1,10.9c-0.1,4.4,0,8.9,0,13.3c0,0.3,0,0.6-0.1,1.1
		c-0.8,0-1.6,0-2.4,0C423.2,173.1,423.2,164,423.2,154.8z"></path> <path class="medtronic-st0" d="M200.1,182.7c-2.5-0.9-0.7-2.8-1.5-4.3c1.5,0,2.6,0,3.8,0c0.9,4-1.2,8.8-4,8.6
		C199,185.5,199.5,184.1,200.1,182.7z"></path> </g> </svg>