<svg class="mckinley-logo" version="1.1" xmlns="http://www.w3.org/2000/svg" xmlns:xlink="http://www.w3.org/1999/xlink" x="0px" y="0px" viewBox="36 314 354 171" style="enable-background:new 36 314 354 171;" xml:space="preserve"> <style type="text/css">
        .mckinley-st0{fill:#FFFFFF;}
        .mckinley-st1{fill:url(#mckinley-SVGID_1_);stroke:#000000;stroke-width:1.0974;stroke-miterlimit:3.8637;}
        .mckinley-st2{fill:url(#mckinley-SVGID_2_);stroke:#000000;stroke-width:1.0974;stroke-miterlimit:3.8637;}
        .mckinley-st3{clip-path:url(#mckinley-SVGID_4_);}
        .mckinley-st4{fill:#FFFFFF;stroke:#FFFFFF;stroke-width:0.8231;stroke-miterlimit:3.8637;}
        .mckinley-st5{fill:url(#mckinley-SVGID_5_);stroke:#000000;stroke-width:0.8231;stroke-miterlimit:3.8637;}
        .mckinley-st6{fill:none;stroke:#000000;stroke-width:1.0974;stroke-miterlimit:3.8637;}
        .mckinley-st7{fill:#ED1C2E;}
        .mckinley-st8{fill:#FFFFFF;stroke:#000000;stroke-width:1.6664;stroke-miterlimit:3.8637;}
        .mckinley-st9{fill:none;}
    </style> <g> <rect x="327.6" y="323.4" class="mckinley-st0" width="37.3" height="148.6"></rect> <linearGradient id="mckinley-SVGID_1_" gradientUnits="userSpaceOnUse" x1="2038.25" y1="2064.5674" x2="2038.25" y2="2043.5098" gradientTransform="matrix(1 0 0 -1 -1692 2388)"> <stop offset="0" style="stop-color:#ED1C2E"></stop> <stop offset="1" style="stop-color:#ED1C2E;stop-opacity:0.4"></stop> </linearGradient> <rect x="327.6" y="323.4" class="mckinley-st1" width="37.3" height="21.1"></rect> <linearGradient id="mckinley-SVGID_2_" gradientUnits="userSpaceOnUse" x1="2038.25" y1="2004.9" x2="2038.25" y2="1916" gradientTransform="matrix(1 0 0 -1 -1692 2388)"> <stop offset="0" style="stop-color:#ED1C2E"></stop> <stop offset="1" style="stop-color:#ED1C2E;stop-opacity:0.5"></stop> </linearGradient> <rect x="327.6" y="383.1" class="mckinley-st2" width="37.3" height="88.9"></rect> <g> <g> <defs> <rect id="mckinley-SVGID_3_" x="327.6" y="383.1" width="37.3" height="88.9"></rect> </defs> <clipPath id="mckinley-SVGID_4_"> <use xlink:href="#mckinley-SVGID_3_" style="overflow:visible;"></use> </clipPath> <g class="mckinley-st3"> <rect x="341.9" y="383.9" class="mckinley-st4" width="8.7" height="89.2"></rect> <linearGradient id="mckinley-SVGID_5_" gradientUnits="userSpaceOnUse" x1="2038.25" y1="1914.9" x2="2038.25" y2="2004.1" gradientTransform="matrix(1 0 0 -1 -1692 2388)"> <stop offset="0" style="stop-color:#000000;stop-opacity:0.2"></stop> <stop offset="1" style="stop-color:#000000"></stop> </linearGradient> <rect x="341.9" y="383.9" class="mckinley-st5" width="8.7" height="89.2"></rect> </g> </g> </g> <rect x="327.6" y="383.1" class="mckinley-st6" width="37.3" height="88.9"></rect> <g> <path d="M56.4,440.1v3.3h8.3v1.8h-8.3v3.6h8.9v2H53.1v-12.7h12.2v2L56.4,440.1L56.4,440.1z"></path> <path d="M76.5,438.1v10.5h8.3v2.2H73.1v-12.7H76.5z"></path> <path d="M94.9,440.1v3.3h8.3v1.8h-8.3v3.6h8.9v2H91.6v-12.7h12.2v2L94.9,440.1L94.9,440.1z"></path> <path d="M123.1,438.1h3.6l-5.7,12.7h-5.2l-5.7-12.7h3.5l3.3,7.2c0.3,0.7,0.8,1.8,1.4,3.5h0.1l0.3-0.9c0.4-1.1,0.8-1.9,1.1-2.6 L123.1,438.1z"></path> <path d="M141.7,448.4H134l-1.1,2.4h-3.6l5.9-12.7h5.1l6,12.7h-3.5L141.7,448.4z M141,446.6l-3.1-6.6l-3,6.6H141z"></path> <path d="M158.4,440.3v10.5H155v-10.5h-5.1v-2.2h13.8v2.2H158.4z"></path> <path d="M178.1,438c3.2,0,5.3,0.4,6.2,1.1c0.9,0.8,1.4,2.5,1.4,5.1c0,2.9-0.5,4.7-1.4,5.5s-3.2,1.1-6.8,1.1 c-3.2,0-5.3-0.4-6.3-1.1c-0.9-0.7-1.4-2.4-1.4-4.9c0-3,0.5-4.9,1.4-5.7C172.2,438.4,174.5,438,178.1,438z M177.9,440 c-2.3,0-3.6,0.2-4,0.6s-0.6,1.9-0.6,4.3c0,1.8,0.2,2.9,0.7,3.3c0.4,0.4,1.8,0.6,4,0.6c2.1,0,3.3-0.2,3.8-0.6 c0.4-0.4,0.6-1.7,0.6-3.8c0-2.1-0.2-3.4-0.6-3.8C181.3,440.2,180,440,177.9,440z"></path> <path d="M193.4,450.8v-12.7h8.8c2.2,0,3.7,0.3,4.5,0.8s1.2,1.5,1.2,2.9c0,1.3-0.2,2.2-0.6,2.6c-0.4,0.5-1.3,0.8-2.5,1v0.1 c2,0.1,3,0.9,3,2.5v2.8h-3.4v-2.3c0-1.3-0.9-2-2.7-2h-4.9v4.3L193.4,450.8L193.4,450.8z M196.7,444.5h4.8c1.2,0,1.9-0.1,2.3-0.4 s0.6-0.9,0.6-1.8s-0.2-1.5-0.5-1.8s-1-0.4-2.1-0.4h-5.1L196.7,444.5L196.7,444.5z"></path> <path d="M64.4,467h3.4v0.4c0,1.8-0.5,2.9-1.4,3.4s-2.9,0.8-6,0.8c-3.5,0-5.7-0.4-6.5-1.2c-0.8-0.8-1.2-3-1.2-6.6 c0-2.1,0.5-3.5,1.6-4.1c1.1-0.7,3.4-1,6.9-1c2.5,0,4.2,0.3,5.1,0.8s1.3,1.6,1.3,3.2v0.3h-3.4v-0.3c0-0.8-0.2-1.4-0.7-1.6 s-1.4-0.3-3-0.3c-2.1,0-3.4,0.2-3.8,0.5c-0.4,0.4-0.6,1.5-0.6,3.3c0,2.4,0.2,3.9,0.6,4.3c0.4,0.4,1.6,0.7,3.7,0.7 c1.7,0,2.8-0.1,3.3-0.4c0.5-0.2,0.8-0.8,0.8-1.6L64.4,467z"></path> <path d="M82.6,458.7c3.2,0,5.3,0.4,6.2,1.1c0.9,0.8,1.4,2.5,1.4,5.1c0,2.9-0.5,4.7-1.4,5.5s-3.2,1.1-6.8,1.1 c-3.2,0-5.3-0.4-6.3-1.1c-0.9-0.7-1.4-2.4-1.4-4.9c0-3,0.5-4.9,1.4-5.7C76.7,459.1,79,458.7,82.6,458.7z M82.4,460.8 c-2.3,0-3.6,0.2-4,0.6s-0.6,1.9-0.6,4.3c0,1.8,0.2,2.9,0.7,3.3c0.4,0.4,1.8,0.6,4,0.6c2.1,0,3.3-0.2,3.8-0.6 c0.4-0.4,0.6-1.7,0.6-3.8c0-2.1-0.2-3.4-0.6-3.8C85.9,461,84.6,460.8,82.4,460.8z"></path> <path d="M97.9,471.5v-12.7h8.8c2.2,0,3.7,0.3,4.5,0.8s1.2,1.5,1.2,2.9c0,1.3-0.2,2.2-0.6,2.6c-0.4,0.5-1.3,0.8-2.5,1v0.1 c2,0.1,3,0.9,3,2.5v2.8h-3.4v-2.3c0-1.3-0.9-2-2.7-2h-4.9v4.3L97.9,471.5L97.9,471.5z M101.3,465.2h4.8c1.2,0,1.9-0.1,2.3-0.4 c0.4-0.3,0.6-0.9,0.6-1.8s-0.2-1.5-0.5-1.8s-1-0.4-2.1-0.4h-5.1V465.2z"></path> <path d="M120.4,471.5v-12.7h7.2h0.9c2.4,0,4,0.3,4.9,0.9c0.8,0.6,1.3,1.8,1.3,3.5s-0.4,2.8-1.2,3.4s-2.4,0.8-4.8,0.8h-0.8h-4v4.1 L120.4,471.5L120.4,471.5z M123.8,465.4h3.8c1.5,0,2.5-0.1,2.9-0.4s0.6-0.8,0.6-1.8c0-1.1-0.2-1.7-0.5-2s-1.2-0.4-2.7-0.4h-4.2 L123.8,465.4L123.8,465.4z"></path> <path d="M149.5,458.7c3.2,0,5.3,0.4,6.2,1.1c0.9,0.8,1.4,2.5,1.4,5.1c0,2.9-0.5,4.7-1.4,5.5s-3.2,1.1-6.8,1.1 c-3.2,0-5.3-0.4-6.3-1.1c-0.9-0.7-1.4-2.4-1.4-4.9c0-3,0.5-4.9,1.4-5.7C143.6,459.1,145.8,458.7,149.5,458.7z M149.2,460.8 c-2.3,0-3.6,0.2-4,0.6s-0.6,1.9-0.6,4.3c0,1.8,0.2,2.9,0.7,3.3c0.4,0.4,1.8,0.6,4,0.6c2.1,0,3.3-0.2,3.8-0.6 c0.4-0.4,0.6-1.7,0.6-3.8c0-2.1-0.2-3.4-0.6-3.8C152.7,461,151.4,460.8,149.2,460.8z"></path> <path d="M164.7,471.5v-12.7h8.8c2.2,0,3.7,0.3,4.5,0.8s1.2,1.5,1.2,2.9c0,1.3-0.2,2.2-0.6,2.6c-0.4,0.5-1.3,0.8-2.5,1v0.1 c2,0.1,3,0.9,3,2.5v2.8h-3.4v-2.3c0-1.3-0.9-2-2.7-2h-4.9v4.3L164.7,471.5L164.7,471.5z M168.1,465.2h4.8c1.2,0,1.9-0.1,2.3-0.4 s0.6-0.9,0.6-1.8s-0.2-1.5-0.5-1.8s-1-0.4-2.1-0.4h-5.1L168.1,465.2L168.1,465.2z"></path> <path d="M198,469.1h-7.7l-1.1,2.4h-3.6l5.9-12.7h5.1l6,12.7h-3.5L198,469.1z M197.2,467.3l-3.1-6.6l-3,6.6H197.2z"></path> <path d="M214.7,461v10.5h-3.4V461h-5.1v-2.2H220v2.2H214.7z"></path> <path d="M230.4,458.8v12.7H227v-12.7H230.4z"></path> <path d="M246.3,458.7c3.2,0,5.3,0.4,6.2,1.1c0.9,0.8,1.4,2.5,1.4,5.1c0,2.9-0.5,4.7-1.4,5.5s-3.2,1.1-6.8,1.1 c-3.2,0-5.3-0.4-6.3-1.1c-0.9-0.7-1.4-2.4-1.4-4.9c0-3,0.5-4.9,1.4-5.7C240.4,459.1,242.6,458.7,246.3,458.7z M246,460.8 c-2.3,0-3.6,0.2-4,0.6s-0.6,1.9-0.6,4.3c0,1.8,0.2,2.9,0.7,3.3c0.4,0.4,1.8,0.6,4,0.6c2.1,0,3.3-0.2,3.8-0.6 c0.4-0.4,0.6-1.7,0.6-3.8c0-2.1-0.2-3.4-0.6-3.8S248.2,460.8,246,460.8z"></path> <path d="M278,458.8v12.7h-5.7l-5.1-7c-0.3-0.3-0.6-1-1.2-1.8l-0.6-0.9l-0.6-0.9h-0.1l0.1,0.8v0.8v1.7v7.3h-3.4v-12.7h5.7l4.6,6.4 c0.4,0.6,0.9,1.3,1.4,2.1l0.7,1l0.7,1h0.1v-0.8v-0.8v-1.6v-7.3L278,458.8L278,458.8z"></path> </g> <path class="mckinley-st7" d="M274.9,385.4c0,0-5.1,0.3-3.3,4.1c0,0,3.4,3.8,3.5,6.1l-0.1,14c0,0,0.5,7.1,7.9,7c0,0,4,0.3,5.9-0.3 c0,0,0.4,1,0.6,2.6c0,0-0.6,0.8-2.4,1.2c0,0-5.5,0.2-5.5,4c0,0-0.5,3.4,4.8,3.4l6.3-0.1c0,0,5.8-1.1,5.8-9.8l-0.2-26.9 c0,0-0.2-5.6-4.8-5.5h-5.5c0,0-3.7,0.1-3.7,2.9c0,0-0.4,2.2,3.1,3.8c0,0,3,0.5,3,3l0.1,9.3c0,0-0.9,4.1-4.4,4.1 c0,0-2.8,0.5-2.8-3.2l-0.1-15.9c0,0-1.1-3.9-4-3.8L274.9,385.4z M269.1,396.2c-0.3,3.1-4.1,2.8-4.1,2.8l-18.5,0.2 c-0.1,0.5-0.2,1-0.2,1.5c0,4.4,3.3,8.2,8.3,8.1c2.2-0.1,5.4-1,6.9-2.4c0,0,1.8-3.8,3.9-3.6c0,0,3.7,0.1,3.7,3.3 c0,0,0.8,2.2-1.5,4.7c-3,3.4-8.3,5.7-13.2,5.7c-9.2,0.1-16.8-7.3-16.9-16.6c-0.1-9.2,7.4-17.3,16.6-16.9c3.6,0.2,6.3,0.2,10.7,3.5 C270.1,390.1,269.1,396.2,269.1,396.2z M262,393.3c-0.9-3.7-7-3.2-7-3.2c-5.7,0-6.4,3.4-6.4,3.4L262,393.3z M225.8,327 c0,0-0.4-1.6-2.1-2.5c0,0-2-2.8,1-3.5c0,0,10-2.7,10,6.2l0.8,86.7c0,0,5.6,7.1,0.6,8.2c0,0-9.5,2.1-9.5-5.4L225.8,327z M220.2,392.8l0.1,16.8c0,0,0.6,0.6,1.3,0.7c0,0,5.2,2.9-0.3,5.9c0,0-8.5,2.2-9-4l-0.1-16.9c-0.2-2.1-3-2-3-2 c-3.2,0-3.5,2.2-3.5,2.2l0.1,14.4c0,0,0.6,0.6,1.3,0.7c0,0,5.4,3.6-0.5,5.7c0,0-8.2,2.2-8.8-4l-0.2-18.7c0,0-0.1-1.4-1.5-2.6 c0,0-3.5-2.7,0.3-5.1c0,0,2.8-1.1,6.6,0.2c0,0,1,0.6,2.3,0.1c0,0,1.8-1,5.2-1C210.4,385,220.1,386.1,220.2,392.8z M183.8,393.7 c0,0-0.1-1.4-1.5-2.6c0,0-4.1-2.7-0.2-5.1c0,0,1.3-1,4.4-1c0,0,5.3-0.6,5.4,6.8l0.2,17.5c0,0,0.6,0.6,1.3,0.7c0,0,4.5,3.1-1.1,6.1 c0,0-7.6,3-8.3-3.6L183.8,393.7z M182.1,375.8c0-2.6,2.1-4.7,4.7-4.7s4.7,2.1,4.7,4.7s-2.1,4.7-4.7,4.7 C184.2,380.4,182.1,378.3,182.1,375.8z M156.2,396c1.4,0.7,1.9,2,1.9,2l9.6,15.1c3.4,4.1,9,3.6,9,3.6c6.9-0.1,5.5-4.1,5.5-4.1 c0-3.6-4.5-3-4.5-3c-1.2,0-2.4-1-2.4-1c-9.7-12.4-13.2-19.8-13.2-19.8c-0.9-1.5,0-2.4,0-2.4c5.8-8.2,14.4-10,14.4-10 c2.5-1.1,2.1-3.6,2.1-3.6c0-3.3-5.8-3-5.8-3c-7.6,0.1-11.8,6.9-13.5,8.9l-2.7,2.5c-1.3,1-1.9-0.4-1.9-0.4V376 c0-4.4-3.7-5.7-3.7-5.7s-5-1.6-9,0.7c0,0-3,1.5-0.5,4.3c0,0,2.8,0.9,4.4,2.4l0.3,32.9c0,0,0.1,6,6.9,5.9c0,0,4.7,0.1,7.2-2.9 c0,0,3.5-4.2-3.9-4.8c0,0-1.5-0.5-1.5-3.1l-0.1-10.3L156.2,396z M136.2,411.9c-3,3.4-7.4,5.6-12.3,5.6c-9.2,0.1-16.8-7.3-16.9-16.6 c-0.1-9.2,7.3-16.8,16.6-16.9c4.1,0,7.8,1,10.7,3.5l0.6,0.7c2.8,2.9,2,6.7,2,6.7c-0.4,4.5-2.6,4.2-2.6,4.2c-3.1,0.8-4.1-3-4.1-3 c-1.4-2.3-3.6-3.3-6.6-3.3c-4.4,0-8,3.7-7.9,8.1c0,4.4,3.7,8,8.1,7.9c2.2,0,4.1-0.7,5.5-2.1c0,0,2.2-2.7,4.7-2.7 c0,0,3.7,0.1,3.7,3.3C137.6,407.3,138.4,409.5,136.2,411.9z M61.5,372.9c0,0-7-2.1-11,0.3c0,0-3,1.5-0.5,4.3c0,0,2.3,1.3,2.5,5.6 l0.3,28.7c0,0,0.1,6,6.9,5.9c0,0,5.4,0.1,7.8-2.9c0,0,3.5-4.2-3.9-4.8c0,0-1.5-0.5-1.5-3.1l-0.2-23.5c0,0,0.1-3.5,5.4-3.5 c0,0,5-0.4,5,3.3l0.2,28.5c0,0,0.1,6,6.9,5.9c0,0,4.5,0.3,7-2.7c0,0,2.8-4-3.1-5c0,0-1.5-0.5-1.5-3.1L81.6,384c0,0,0.1-3.5,5.4-3.5 c0,0,3.5-0.7,4.5,3.3l0.2,27.8c0,0,0.1,6,6.9,5.9c0,0,5.4,0.1,7.8-2.9c0,0,3.5-4.9-4.9-5.3c0,0-1.6,0-1.7-2.6l-0.2-27.1 c0,0-1.3-8.8-11.4-8.8c0,0-5.8-0.4-10.1,3.5c0,0-2.9-3.4-8.5-3.3c0,0-5,0.1-7.3,2.1L61.5,372.9z"></path> <rect x="312.9" y="343.1" class="mckinley-st8" width="66.9" height="41.8"></rect> <g> <g> <circle class="mckinley-st7" cx="323.4" cy="365.8" r="4.2"></circle> <polygon class="mckinley-st7" points="320.9,368.7 318.2,373.9 315.8,377 314.5,377.8 318.3,381 318.5,379.7 320.7,377.4 323.4,381 325.7,378.1 324.3,377.9 323,375.4 325.3,372.1 328.7,371 329.4,369.3 324.8,370.2 324.8,369.2"></polygon> </g> <path class="mckinley-st7" d="M346.3,365.3l-3-7.7h-9.8l-5.4,14c1-0.7,2.2-1,3.5-1c2.9,0,5.3,1.8,6.2,4.4l1.7-4.2l3.5,5.7h6.5l3.5-5.7 l1.7,4.2c0.9-2.6,3.3-4.4,6.2-4.4c1.3,0,2.5,0.4,3.5,1l-5.4-14h-9.8L346.3,365.3z M355.5,377.2c0-3,2.4-5.5,5.5-5.5 c3,0,5.5,2.4,5.5,5.5c0,3-2.4,5.5-5.5,5.5S355.5,380.2,355.5,377.2z M326.1,377.2c0-3,2.4-5.5,5.5-5.5c3,0,5.5,2.4,5.5,5.5 c0,3-2.4,5.5-5.5,5.5C328.6,382.7,326.1,380.2,326.1,377.2z"></path> <g> <circle class="mckinley-st7" cx="369.1" cy="365.8" r="4.2"></circle> <polygon class="mckinley-st7" points="371.6,368.7 374.4,373.9 376.8,377 378,377.8 374.3,381 374,379.7 371.9,377.4 369.2,381 366.9,378.1 368.2,377.9 369.6,375.4 367.3,372.1 363.9,371 363.2,369.3 367.8,370.2 367.8,369.2"></polygon> </g> </g> </g> <rect x="23" y="283" class="mckinley-st9" width="383" height="221"></rect> </svg>