<svg class="philips-logo" version="1.1" xmlns="http://www.w3.org/2000/svg" xmlns:xlink="http://www.w3.org/1999/xlink" x="0px" y="0px" viewBox="226.9 313.7 430.1 103" style="enable-background:new 226.9 313.7 430.1 103;" xml:space="preserve"> <style type="text/css">
        .philips-st0{fill:#0079C1;}
    </style> <path class="philips-st0" d="M285.9,353.4c0,9.1-4.4,15.3-15.6,15.3h-3.5v-29c1.3-0.1,2.4-0.1,3.5-0.1C280.9,339.6,285.9,344.6,285.9,353.4 M274.4,381.4c20,0,32.7-10.3,32.7-28.3c0-19.7-13.5-26.8-35.6-26.8c-8.5,0-18.8,0.6-26.2,1.5v70.4h21.5v-16.8H274.4z M562.1,353.4 c0,9.1-4.4,15.3-15.6,15.3H543v-29c1.2-0.1,2.4-0.1,3.5-0.1C557.1,339.6,562.1,344.6,562.1,353.4 M550.7,381.4 c20,0,32.6-10.3,32.6-28.3c0-19.7-13.5-26.8-35.6-26.8c-8.5,0-18.8,0.6-26.2,1.5v70.4H543v-16.8H550.7z M611.3,345.8 c0-3.8,3.8-5.6,10-5.6c6.8,0,14.1,1.5,19.1,3.5l-1.8-15.3c-5.6-1.2-10.6-2.1-19.7-2.1c-17.4,0-29.1,6.8-29.1,21.2 c0,24.7,33.5,19.7,33.5,31.2c0,4.4-3.2,6.8-11.2,6.8c-7,0-17.9-2.4-24.4-5.6l2.4,16.2c6.5,2.4,15.3,3.5,22.4,3.5 c17.9,0,32.7-5.9,32.7-23.6C645.1,352.6,611.3,357,611.3,345.8 M505.4,327.8h-21.5v70.4h21.5V327.8z M418.3,327.8h-21.5v70.4h21.5 V327.8z M455.6,384v-56.2h-21.5v70.4H473l3.2-14.1h-20.6V384z M380.9,327.8h-21.5v28H337v-28h-21.5v70.4H337v-27.7h22.4v27.7h21.5 V327.8z"></path> </svg>