<svg class="schneider-electric-logo" version="1.1" xmlns="http://www.w3.org/2000/svg" xmlns:xlink="http://www.w3.org/1999/xlink" x="0px" y="0px" viewBox="-195 350 305 102" style="enable-background:new -195 350 305 102;" xml:space="preserve"> <style type="text/css">
    .schneider-electric-st0{fill:#00953A;}
    .schneider-electric-st1{fill:#FFFFFE;}
    </style> <g> <g> <polygon class="schneider-electric-st0" points="-41.5,413.3 -52.6,413.3 -52.6,421.2 -42,421.2 -42,424.6 -52.6,424.6 -52.6,432.7 -41.2,432.7 -41.2,436.1 -56.3,436.1 -56.3,409.9 -41.5,409.9"></polygon> <polygon class="schneider-electric-st0" points="-33.1,409.9 -29.7,409.9 -29.7,436.1 -33.1,436.1"></polygon> <path class="schneider-electric-st0" d="M-16.5,428h12.1c0-6.4-3-9.4-7.5-9.4c-4.7,0-8,3.5-8,8.7c0,4.7,3,9.1,8.3,9.1c2.9,0,4.7-0.7,6.9-2.1V431 c-2.1,1.3-4,2.1-6.1,2.1C-14.1,433.1-16,431.4-16.5,428L-16.5,428z M-11.8,421.4c2.4,0,3.9,1.6,4,4.3h-8.6 C-16,423-14.5,421.4-11.8,421.4L-11.8,421.4z"></path> <path class="schneider-electric-st0" d="M17.1,423.4c-2-1.3-3.3-1.7-4.7-1.7c-3.2,0-5.2,2.4-5.2,5.9c0,3.6,2.3,5.7,5.8,5.7c1.4,0,2.9-0.4,4.6-1.1v3.3 c-1.2,0.5-3.4,1-5.1,1c-5.1,0-8.7-3.6-8.7-8.6c0-5.6,3.3-9.2,8.4-9.2c2.1,0,3.4,0.4,5,1.1v3.6H17.1z"></path> <path class="schneider-electric-st0" d="M32.4,418.9h5.4v3.1h-5.4v8.8c0,2,1.4,2.6,2.5,2.6c1.2,0,2.5-0.4,3.9-1.2v3.2c-1.2,0.6-3.1,1.1-4.2,1.1 c-3.7,0-5.5-2.4-5.5-5.4v-9h-3v-0.4l6.4-6.3L32.4,418.9L32.4,418.9z"></path> <path class="schneider-electric-st0" d="M50.1,418.9v4l0,0c1.7-3.1,3.4-4.3,5-4.3c1.3,0,2.7,0.6,4.1,2l-1.9,3c-1-1-2.4-1.6-3.2-1.6 c-2.4,0-4.1,2.4-4.1,5.2v9h-3.4V419h3.5V418.9z"></path> <polygon class="schneider-electric-st0" points="68.9,418.9 72.3,418.9 72.3,436.1 68.9,436.1"></polygon> <path class="schneider-electric-st0" d="M94.3,423.4c-1.9-1.3-3.3-1.7-4.7-1.7c-3.2,0-5.2,2.4-5.2,5.9c0,3.6,2.3,5.7,5.7,5.7c1.4,0,2.9-0.4,4.6-1.1 v3.3c-1.2,0.5-3.4,1-5.1,1c-5.1,0-8.7-3.6-8.7-8.6c0-5.6,3.3-9.2,8.4-9.2c2.1,0,3.4,0.4,5,1.1L94.3,423.4L94.3,423.4z"></path> </g> <g> <g> <path class="schneider-electric-st0" d="M-149,371.5c-6.5-2.9-10.4-3.9-14.1-3.9c-4,0-6.6,1.4-6.6,3.6c0,6.8,22.8,4.9,22.8,20.4 c0,8.5-7.2,13.5-17.1,13.5c-7.9,0-11.8-2-16.1-4.3v-9.7c6.3,4.3,10.2,5.8,15.3,5.8c4.3,0,6.6-1.4,6.6-4.2 c0-7.2-22.9-4.6-22.9-20.6c0-7.8,6.8-12.8,17.1-12.8c5,0,9.5,1,15.1,3.5v8.7H-149z"></path> <path class="schneider-electric-st0" d="M-117,403.2c-3.9,1.3-7.1,2-10.2,2c-10.7,0-17.6-6.2-17.6-15.7c0-9.2,7.2-15.7,17.1-15.7c3,0,7.1,0.7,10.2,2 v7.1c-2.6-1.3-5.5-2.2-7.8-2.2c-5.8,0-9.4,3.5-9.4,8.8c0,5.3,3.6,8.9,9.1,8.9c2.3,0,4.3-0.6,8.5-2.2v7H-117z"></path> <path class="schneider-electric-st0" d="M-92.4,399.4v-12.1c0-4.5-1.9-6.6-4.9-6.6c-2.2,0-4,1.4-6.3,4.6v19.3h-9.5V360h9.5v18.9h0.1 c2.7-3.5,5.8-5,9.5-5c5.6,0,11.1,3.3,11.1,11.5v12.2C-86,397.5-89.9,398.7-92.4,399.4L-92.4,399.4z"></path> <path class="schneider-electric-st0" d="M-78.4,397c0-5.5,0-22.6,0-22.6h9.5v4.3c3-3.5,6-4.9,9.9-4.9c4.8,0,10.9,2.7,10.9,11.5v19.3h-9.5v-18.4 c0-4.3-2-6-4.8-6c-2.3,0-4,1.3-6.6,5c0,0,0,8.4,0,13.2C-72.1,397.5-75.4,397.3-78.4,397L-78.4,397z"></path> <path class="schneider-electric-st0" d="M-28.3,373.8c-9.4,0-16,6.6-16,15.8c0,9.4,6.9,15.6,17.6,15.6c2.4,0,8.1,0,13.5-4v-5.9 c-4.5,3.2-7.5,4.3-11.2,4.3c-5.9,0-9.6-3.2-9.9-8.5h21.6C-12.1,380-19.5,373.8-28.3,373.8L-28.3,373.8z M-34.2,386 c0.4-4.2,2.9-6.6,6.6-6.6c3.6,0,6.2,2.6,6.5,6.6H-34.2L-34.2,386z"></path> <polygon class="schneider-electric-st0" points="-9,374.4 0.5,374.4 0.5,404.6 -9,404.6"></polygon> <path class="schneider-electric-st0" d="M26.9,360v15.7c-2.5-1.2-5-1.9-7.8-1.9c-8.6,0-14.7,6.3-14.7,15.7c0,9.1,6,15.7,14.1,15.7 c3.2,0,5.8-0.9,8.4-3v2.4h9.5V360H26.9L26.9,360z M26.9,396.4c-1.9,1.7-3.6,2.4-5.6,2.4c-4.5,0-7.3-3.7-7.3-9.2 c0-6.1,2.9-9.5,7.6-9.5c1.7,0,4,0.7,5.3,1.7V396.4L26.9,396.4z"></path> <path class="schneider-electric-st0" d="M56.4,373.8c-9.4,0-16,6.6-16,15.8c0,9.4,6.9,15.6,17.6,15.6c2.3,0,8.1,0,13.5-4v-5.9 c-4.5,3.2-7.5,4.3-11.2,4.3c-6,0-9.6-3.2-10.1-8.5H72C72.4,380,65.2,373.8,56.4,373.8L56.4,373.8z M50.5,386 c0.4-4.2,2.7-6.6,6.5-6.6c3.7,0,6.2,2.6,6.6,6.6H50.5L50.5,386z"></path> <path class="schneider-electric-st0" d="M86.2,383h0.1c2.7-6.3,5.9-9.2,9.7-9.2c1.9,0,3.5,0.7,6.2,2.7l-2.6,8.4c-2.4-1.6-4-2.2-5.6-2.2 c-3.5,0-5.8,3.3-7.8,8.8v13.1h-9.5v-30.2h9.5L86.2,383L86.2,383z"></path> </g> <path class="schneider-electric-st0" d="M1,361.5c0.9,2.4-0.7,5.8-3.6,7.3c-2.9,1.7-5.9,1.2-6.8-1.2c-0.9-2.3,0.7-5.6,3.6-7.3 C-2.9,358.7,0.1,359.2,1,361.5L1,361.5z"></path> </g> <path class="schneider-electric-st0" d="M72.5,412.7c0.3,0.8-0.3,2-1.3,2.6c-1,0.6-2.1,0.4-2.4-0.4c-0.3-0.8,0.2-1.9,1.2-2.6 C71,411.7,72.1,411.9,72.5,412.7L72.5,412.7z"></path> <g> <path class="schneider-electric-st0" d="M-101,410.6c9.9-10.3,24-13.5,31.4-7.2c7.4,6.3,5.3,19.9-4.6,30.2c-9.9,10.3-24,13.5-31.4,7.2 C-113,434.4-110.9,420.8-101,410.6L-101,410.6z"></path> <g> <path class="schneider-electric-st0" d="M-94,435.1h-9.9l1.6-6.1l5.5,0.1c0.9,0,2-0.6,2.2-1.5l2.4-10.8c1-4.4,6.5-7.9,11.1-7.9h9.8l-1.3,5.5 l-5.2,0.1c-1.2,0-1.5,0.3-1.8,1.2l-3.1,11.7C-83.8,431.8-89.4,435.1-94,435.1L-94,435.1z"></path> <path class="schneider-electric-st1" d="M-106.6,418.3c0.7-1.3,1.5-2.6,2.5-3.9h5.7l-1.3,3.9H-106.6L-106.6,418.3z"></path> <path class="schneider-electric-st1" d="M-109.4,425.7c0.3-1.3,0.7-2.6,1.2-3.9h7.9l-1.3,3.9H-109.4L-109.4,425.7z"></path> <path class="schneider-electric-st1" d="M-68,425.1c-0.7,1.3-1.4,2.6-2.3,3.9H-78l1.3-3.9H-68L-68,425.1z"></path> <path class="schneider-electric-st1" d="M-65.4,417.7c-0.2,1.3-0.6,2.6-1.1,3.9h-9.7l1.3-3.9H-65.4L-65.4,417.7z"></path> <path class="schneider-electric-st1" d="M-94,435.1h-9.9l1.6-6.1l5.5,0.1c0.9,0,2-0.6,2.2-1.5l2.4-10.8c1-4.4,6.5-7.9,11.1-7.9h9.8l-1.3,5.5 l-5.2,0.1c-1.2,0-1.5,0.3-1.8,1.2l-3.1,11.7C-83.8,431.8-89.4,435.1-94,435.1L-94,435.1z"></path> </g> </g> </g> </svg>