<svg version="1.1" id="Layer_1" xmlns="http://www.w3.org/2000/svg" xmlns:xlink="http://www.w3.org/1999/xlink" x="0px" y="0px"
	 viewBox="-125 353.7 572 95.3" style="enable-background:new -125 353.7 572 95.3;" xml:space="preserve">
<style type="text/css">
	.st0{fill:#FF6633;}
    .st1{fill:#666666;}
</style>
<title>ServiceMax</title>
<g>
	<path class="st0" d="M-117.6,390l16.6-10.5c2.2-0.8,4.6-0.1,6.1,1.6l14.9,14.3c0,0,1.9,1.2-0.9,3.9l-14.6,12.3c0,0-3.6,1.7-6-0.5
		l-15.9-15.3C-117.3,395.8-120.9,392.3-117.6,390"/>
	<path class="st0" d="M-92.4,374.2l10.8-7.2c1.6-1.4,4-1.3,5.4,0.2l13.3,11.8c0,0,2.5,2.5,0.3,4.7l-10.4,8.1c0,0-3.2,2-7.1-2.2
		l-12-10.9C-92.1,378.6-94.7,375.8-92.4,374.2"/>
	<path class="st0" d="M-69,395l9.2-8.6c1.9-1.5,4.5-1.4,6.3,0.1l13.9,11.5c0,0,3.5,2.1,1.5,5.4l-8.5,10.5c0,0-2.5,3.1-6.8-0.6
		l-14.6-13C-67.9,400.3-71.1,397.3-69,395"/>
	<path class="st0" d="M-90.6,414.6l13.2-12.7c0,0,2.8-3.2,7.2,0.9l15.1,14.7c0,0,3.6,3.8,1.2,7.2l-12.2,15.8c0,0-3,3.6-7.2-0.3
		L-90,423.2C-90,423.2-94.2,418.5-90.6,414.6"/>
	<path class="st1" d="M4.5,391.9c-1-1.2-2.1-2.2-3.5-3c-1.6-0.8-3.3-1.2-5.1-1.2c-1.7,0-3.4,0.4-4.9,1.2c-1.3,0.7-2.1,2-2.1,3.5
		c0,1.1,0.4,2.2,1.2,3c0.8,0.8,1.8,1.4,2.8,1.9c1.1,0.5,2.3,0.8,3.5,1l3.2,0.6c1.6,0.4,3.2,0.9,4.8,1.5c1.4,0.5,2.7,1.3,3.9,2.3
		c1.1,0.9,2,2.1,2.6,3.4c0.7,1.6,1,3.2,0.9,4.9c0.1,2.1-0.5,4.2-1.5,6c-1,1.6-2.3,3-3.9,4.1c-1.6,1.1-3.5,1.9-5.4,2.3
		c-2,0.5-4.1,0.7-6.1,0.7c-3.1,0.1-6.2-0.5-9.1-1.6c-2.8-1.2-5.3-3.3-7-5.8l6-4.9c1.3,1.3,2.7,2.5,4.3,3.5c1.8,1,3.8,1.6,5.8,1.5
		c1,0,2-0.1,3-0.3c1-0.2,1.9-0.5,2.7-1c0.8-0.4,1.4-1,1.9-1.7c0.5-0.7,0.8-1.5,0.8-2.3c0-1.1-0.4-2.1-1.1-2.9
		c-0.7-0.8-1.6-1.4-2.6-1.8c-1.1-0.5-2.1-0.8-3.3-1.1c-1.1-0.3-2.1-0.5-3-0.7c-1.7-0.4-3.3-0.9-4.8-1.4c-1.4-0.5-2.8-1.2-4-2.1
		c-1.2-0.9-2.1-2-2.8-3.4c-0.7-1.6-1.1-3.3-1.1-5c0-2,0.4-3.9,1.4-5.7c0.9-1.6,2.1-3,3.6-4c1.5-1.1,3.3-1.9,5.1-2.4
		c1.9-0.5,3.8-0.8,5.8-0.8c2.8,0,5.5,0.5,8.1,1.6c2.6,1,4.7,2.9,6.2,5.3L4.5,391.9z"/>
	<path class="st1" d="M55.1,398.9c0-1.6-0.3-3.3-0.8-4.8c-0.5-1.4-1.2-2.7-2.2-3.8c-1-1.1-2.3-2-3.7-2.5c-1.7-0.7-3.5-1-5.3-0.9
		c-1.8,0-3.7,0.4-5.3,1.1c-1.5,0.7-2.9,1.7-4.1,2.9c-1.1,1.1-2,2.5-2.6,3.9c-0.6,1.3-0.9,2.8-0.9,4.3H55.1L55.1,398.9z M30.1,405.2
		c0,1.7,0.4,3.5,1.2,5c0.8,1.5,1.8,2.8,3.1,3.8c1.3,1.1,2.9,1.9,4.5,2.5c1.7,0.6,3.5,0.9,5.3,0.9c2.3,0.1,4.5-0.5,6.4-1.7
		c1.9-1.2,3.6-2.8,5-4.5l6,4.6c-4.4,5.7-10.6,8.5-18.5,8.5c-3.1,0-6.1-0.5-8.9-1.7c-2.6-1-4.9-2.6-6.8-4.6c-1.9-2-3.3-4.4-4.3-7
		c-1-2.8-1.5-5.7-1.5-8.6c0-3,0.5-5.9,1.6-8.7c1-2.6,2.6-5,4.5-7c1.9-2,4.3-3.6,6.8-4.6c2.7-1.1,5.7-1.7,8.6-1.7
		c3.2-0.1,6.4,0.6,9.4,2c2.4,1.2,4.6,2.9,6.3,5.1c1.6,2.1,2.8,4.5,3.6,7c0.7,2.6,1.1,5.3,1.1,8v2.8L30.1,405.2L30.1,405.2z"/>
	<path class="st1" d="M75.7,381.5h7.9v6.4h0.2c0.5-1.1,1.2-2.1,2.1-3c0.9-0.9,1.9-1.7,3-2.3c1.1-0.7,2.3-1.2,3.6-1.5
		c1.3-0.4,2.6-0.6,3.9-0.6c1.2,0,2.4,0.2,3.5,0.5l-0.4,8.5c-0.7-0.2-1.3-0.3-1.9-0.4c-0.6-0.1-1.3-0.2-1.9-0.2
		c-3.9,0-6.8,1.1-8.9,3.3c-2.1,2.2-3.1,5.5-3.1,10.1v21h-7.9L75.7,381.5L75.7,381.5z"/>
	<polygon class="st1" points="105.9,381.4 115,381.4 127.5,413.4 139.5,381.4 148,381.4 131.6,423.2 122.9,423.2 	"/>
	<path class="st1" d="M158.2,381.4h7.9v41.7h-7.9V381.4z M156.3,366.4c0-3.2,2.6-5.8,5.8-5.8c3.2,0,5.8,2.6,5.8,5.8
		c0,1.6-0.6,3-1.7,4.1c-2.3,2.3-6,2.3-8.2,0C156.9,369.4,156.3,368,156.3,366.4"/>
	<path class="st1" d="M209.4,392.5c-1.3-1.4-2.9-2.6-4.6-3.5c-1.8-0.8-3.8-1.2-5.8-1.2c-2,0-3.9,0.4-5.7,1.2c-1.6,0.8-2.9,1.9-4,3.3
		c-1.1,1.4-1.9,3-2.5,4.8c-0.6,1.8-0.8,3.7-0.8,5.6c0,1.9,0.3,3.7,1,5.5c0.6,1.7,1.5,3.2,2.7,4.5c1.2,1.3,2.6,2.3,4.2,3
		c1.8,0.8,3.6,1.1,5.5,1.1c2,0.1,3.9-0.4,5.7-1.2c1.7-0.9,3.2-2,4.4-3.5l5.6,5.6c-1.9,2.2-4.4,3.9-7.2,4.9c-2.8,1-5.7,1.5-8.7,1.5
		c-3,0-6-0.5-8.9-1.6c-2.6-1-4.9-2.5-6.9-4.4c-2-1.9-3.5-4.3-4.5-6.8c-1.1-2.8-1.6-5.8-1.6-8.9c0-3,0.5-6.1,1.6-8.9
		c2-5.3,6.1-9.4,11.3-11.5c2.8-1.1,5.9-1.7,8.9-1.6c3,0,6,0.5,8.8,1.6c2.8,1.1,5.3,2.8,7.3,5L209.4,392.5z"/>
	<path class="st1" d="M256.5,398.9c0-1.6-0.3-3.3-0.8-4.8c-0.5-1.4-1.2-2.7-2.2-3.8c-1-1.1-2.3-2-3.7-2.5c-1.7-0.7-3.4-1-5.2-0.9
		c-1.8,0-3.7,0.4-5.3,1.1c-1.5,0.7-2.9,1.7-4.1,2.9c-1.1,1.1-2,2.5-2.6,3.9c-0.6,1.3-0.9,2.8-0.9,4.3H256.5L256.5,398.9z
		 M231.5,405.2c0,1.7,0.4,3.5,1.2,5c0.8,1.5,1.8,2.8,3.1,3.8c1.3,1.1,2.9,1.9,4.5,2.5c1.7,0.6,3.5,0.9,5.3,0.9
		c2.2,0,4.5-0.6,6.4-1.8c1.9-1.2,3.6-2.8,5-4.5l6,4.6c-4.4,5.7-10.6,8.5-18.5,8.5c-3.1,0-6.1-0.5-8.9-1.7c-2.6-1-4.9-2.6-6.8-4.6
		c-1.9-2-3.3-4.4-4.3-7c-1-2.8-1.5-5.7-1.5-8.7c0-3,0.5-5.9,1.6-8.7c1-2.6,2.6-5,4.5-7c2-2,4.3-3.5,6.9-4.5c2.7-1.1,5.7-1.7,8.6-1.7
		c3.2-0.1,6.4,0.6,9.4,1.9c2.4,1.2,4.6,2.9,6.3,5.1c1.6,2.1,2.9,4.5,3.6,7c0.7,2.6,1.1,5.3,1.1,8v2.8L231.5,405.2L231.5,405.2z"/>
	<path class="st1" d="M277.6,381.5h7.4v6.5h0.2c0.3-0.8,0.8-1.6,1.4-2.2c0.8-1,1.8-1.8,2.8-2.5c1.2-0.8,2.6-1.5,4-2
		c1.7-0.6,3.4-0.9,5.1-0.8c2.7-0.1,5.5,0.6,7.9,1.9c2.2,1.4,4,3.4,5.2,5.8c1.3-2.5,3.3-4.5,5.7-5.8c2.3-1.2,4.9-1.9,7.5-1.9
		c2.7-0.1,5.4,0.4,7.9,1.6c1.9,1,3.6,2.4,4.8,4.2c1.2,1.8,2,3.8,2.4,5.9c0.4,2.2,0.7,4.5,0.7,6.8v24.3h-7.9v-23.2
		c0-1.5-0.1-3.1-0.3-4.6c-0.2-1.4-0.6-2.7-1.3-3.9c-0.7-1.1-1.6-2.1-2.7-2.7c-1.4-0.7-3-1.1-4.7-1c-3.8,0-6.5,1.2-8.2,3.5
		c-1.7,2.7-2.6,5.8-2.5,9v22.8h-7.9v-21.8c0-1.8-0.1-3.6-0.3-5.5c-0.2-1.5-0.6-2.9-1.2-4.3c-0.6-1.2-1.5-2.1-2.6-2.8
		c-1.4-0.7-3-1.1-4.6-1c-1.4,0-2.8,0.3-4.1,0.8c-1.3,0.6-2.5,1.4-3.5,2.5c-1.1,1.2-1.9,2.7-2.4,4.3c-0.6,2-0.9,4-0.9,6.1v21.6h-7.9
		L277.6,381.5L277.6,381.5z"/>
	<path class="st1" d="M375.6,403.1c-1.9,0-3.9,0.1-5.8,0.3c-1.8,0.2-3.6,0.6-5.4,1.2c-1.5,0.5-2.9,1.3-4,2.5c-1,1.1-1.6,2.5-1.5,4
		c0,2.4,0.8,4.1,2.4,5.2c2,1.2,4.3,1.7,6.6,1.6c1.9,0.1,3.8-0.3,5.6-1.1c1.4-0.7,2.7-1.6,3.7-2.9c0.9-1.2,1.6-2.5,2-3.9
		c0.4-1.4,0.6-2.8,0.6-4.3v-2.6H375.6L375.6,403.1z M353.2,386.6c2.2-2.1,4.9-3.6,7.8-4.6c2.8-1,5.8-1.5,8.8-1.5
		c2.7-0.1,5.3,0.3,7.9,1.1c2,0.6,3.8,1.7,5.4,3.1c1.4,1.2,2.4,2.8,3.1,4.5c0.7,1.7,1,3.4,1,5.2v21.3c0,1.5,0,2.8,0.1,4
		c0.1,1.2,0.1,2.4,0.3,3.5h-7c-0.2-2.1-0.3-4.2-0.3-6.3h-0.2c-1.5,2.5-3.7,4.4-6.2,5.7c-2.6,1.2-5.5,1.7-8.4,1.7
		c-1.9,0-3.7-0.3-5.5-0.8c-1.7-0.5-3.2-1.3-4.6-2.4c-1.3-1.1-2.4-2.4-3.1-3.9c-1.7-3.9-1.5-8.5,0.7-12.2c1.3-1.9,2.9-3.4,4.9-4.4
		c2.3-1.2,4.8-2,7.3-2.5c2.9-0.5,5.9-0.7,8.9-0.7h5.8v-1.8c0-1.1-0.2-2.2-0.6-3.2c-0.4-1.1-1-2-1.8-2.9c-0.9-0.9-1.9-1.6-3.1-2
		c-1.4-0.5-2.9-0.8-4.4-0.8c-1.3,0-2.7,0.1-4,0.4c-1.1,0.3-2.1,0.6-3.1,1.1c-0.9,0.4-1.8,0.9-2.5,1.5l-2.2,1.7L353.2,386.6z"/>
	<polygon class="st1" points="413.3,400.9 398.5,381.4 408.7,381.4 418.8,396.2 428.8,381.4 438.4,381.4 424.1,400.9 441,423.2
		430.8,423.2 418.5,405.7 406.1,423.2 396.4,423.2 	"/>
</g>
</svg>