<svg class="sony-logo" version="1.1" xmlns="http://www.w3.org/2000/svg" xmlns:xlink="http://www.w3.org/1999/xlink" x="0px" y="0px" viewBox="220 362 355 76" style="enable-background:new 220 362 355 76;" xml:space="preserve"> <g> <path d="M562,416.7c-2.8,0-5.1,2.3-5.1,5.1c0,2.8,2.3,5.1,5.1,5.1s5.1-2.3,5.1-5.1S564.8,416.7,562,416.7L562,416.7z M562,426.3
    L562,426.3c-2.5,0-4.5-2-4.5-4.5s2-4.5,4.5-4.5s4.5,2,4.5,4.5S564.5,426.3,562,426.3L562,426.3z"></path> <path d="M564.6,420.4c0-0.5-0.2-1-0.6-1.2c-0.4-0.2-0.9-0.3-1.4-0.3h-2.5v5.7h0.7V422h1.3l1.6,2.6h0.8l-1.7-2.6
    C563.9,422,564.6,421.6,564.6,420.4L564.6,420.4z M561.9,421.5L561.9,421.5h-1.1v-2h1.6c0.7,0,1.5,0.1,1.5,1
    C563.9,421.6,562.7,421.5,561.9,421.5L561.9,421.5z"></path> <path d="M532.2,393l10.4-11.1c0.6-0.8,0.9-1.4,0.9-1.9c0-0.8-0.7-1.1-2.9-1.1H538v-7h28.4v7h-3.7c-4.3,0-5.1,0.6-11.1,8.2
    l-16.5,17.8v10.8c0,2.8,1.4,3.8,5.4,3.8h6.2v6.8H507v-6.8h6.2c4,0,5.4-1,5.4-3.8v-10.8l-19.4-21.4c-3.2-3.7-2.7-4.6-11.7-4.6v-7h36
    v7h-2.6c-2.6,0-3.7,0.5-3.7,1.5c0,0.8,0.8,1.5,1.3,2.1l9.8,10.7C529.5,394.3,530.9,394.5,532.2,393L532.2,393z"></path> <path d="M291,371.9h8.7v19.5h-8c-0.7-3.9-3.2-5.4-5.4-7.5c-4-3.7-12.7-6.8-20.1-6.8c-9.5,0-17.4,2.9-17.4,7.2
    c0,12,54.1,2.5,54.1,25.1c0,11.8-11.6,18.4-32.4,18.4c-7.2,0-18.1-2.2-24.5-5.6c-2-1.2-2.9,1.1-3.3,3.9h-8.9V406h8
    c1.8,5.1,4.2,6.2,6.5,8.2c3.9,3.6,13.2,6.2,21.7,6.1c12.8-0.1,17.3-2.9,17.3-7s-4.4-5-18.4-7.2l-11.9-2c-13.5-2-23.3-5-23.3-15.8
    c0-11.2,12.4-18.2,32-18.2c8.3,0,15.2,1.1,21.8,4.9C289.3,376.2,291,376.3,291,371.9L291,371.9z"></path> <path d="M460.3,404.6l0.2-21.7c0-2.9-1.5-3.8-5.7-3.8h-5v-6.8h31.7v6.8h-4.1c-4.2,0-5.7,1-5.7,3.8v43.7l-12.4-0.1l-40.2-38v27.6
    c0,2.8,1.5,3.8,5.7,3.8h5.5v6.7h-32.9v-6.7h5.4c4.2,0,5.7-1.1,5.7-3.8v-33.2c0-2.9-1.5-3.8-5.7-3.8h-5.4v-6.8h28.4L460.3,404.6
    L460.3,404.6z"></path> <path d="M354.2,369.7c-25.2,0-41,11.1-41,29.1c0,17.6,15.6,28.7,40.3,28.7c26.2,0,41.5-10.9,41.5-29.6
    C394.9,381.1,378.4,369.7,354.2,369.7L354.2,369.7z M353.6,420.4L353.6,420.4c-14,0-22-8.1-22-22c0-13.6,8.4-21.7,22.7-21.7
    c13.7,0,21.8,8.2,21.8,22.2C376.1,412.7,367.9,420.4,353.6,420.4L353.6,420.4z"></path> </g> </svg>